<svg viewBox="0 0 16 16" width="16" height="16"><path d="M8.49978 2.50043C8.49978 2.22428 8.27592 2.00043 7.99978 2.00043 7.72363 2.00043 7.49978 2.22428 7.49978 2.50043V7.50043L2.49976 7.50043C2.22361 7.50043 1.99976 7.72428 1.99976 8.00043 1.99976 8.27657 2.22361 8.50043 2.49976 8.50043L7.49978 8.50043V13.4996C7.49978 13.7758 7.72363 13.9996 7.99978 13.9996 8.27592 13.9996 8.49978 13.7758 8.49978 13.4996V8.50043L13.5003 8.50043C13.7764 8.50043 14.0003 8.27657 14.0003 8.00043 14.0003 7.72429 13.7764 7.50043 13.5003 7.50043L8.49978 7.50043V2.50043Z"></path></svg>