<svg viewBox="0 0 16 16" width="16" height="16"><path d="M2.55528 2.93781C2.30329 2.88353 2.00165 3.07217 2.00165 3.33092V3.37635C1.99943 3.39546 1.99829 3.4149 1.99829 3.4346V13.5019C1.99829 13.778 2.22215 14.0019 2.49829 14.0019 2.77443 14.0019 2.99829 13.778 2.99829 13.5019V11.3023C3.85579 11.5256 5.28185 11.6151 7.33498 10.8685 10.1195 9.85595 12.5196 10.4241 13.5132 10.7561 13.7448 10.8334 14.0016 10.6623 14.0016 10.4181V2.85806C14.0016 2.7288 13.9278 2.61215 13.8073 2.56537 13.0874 2.28593 10.4521 1.4386 7.33498 2.57208 5.05209 3.4022 3.54447 3.23599 2.73169 2.99231 2.67795 2.96389 2.6184 2.94497 2.55528 2.93781Z"></path></svg>