<svg viewBox="0 0 16 16" width="16" height="16"><path d="M9.78042 8.32419C9.56 8.16437 9.56019 7.83582 9.7808 7.67626L13.3655 5.0835C13.63 4.89219 14 5.08117 14 5.40761V10.5996C14 10.9263 13.6296 11.1152 13.3652 10.9235L9.78042 8.32419ZM11.0382 8.00097L13 9.42344V6.58206L11.0382 8.00097ZM4.44717 8.32419C4.22675 8.16437 4.22694 7.83582 4.44755 7.67626L8.03229 5.0835C8.29679 4.89219 8.66671 5.08117 8.66671 5.40761V10.5996C8.66671 10.9263 8.29635 11.1152 8.0319 10.9235L4.44717 8.32419ZM5.70493 8.00097L7.66671 9.42344V6.58206L5.70493 8.00097ZM2 5.49963C2 5.22349 2.22386 4.99963 2.5 4.99963 2.77614 4.99963 3 5.22349 3 5.49963V10.4996C3 10.7758 2.77614 10.9996 2.5 10.9996 2.22386 10.9996 2 10.7758 2 10.4996V5.49963Z"></path></svg>