<svg width="16" height="16" viewBox="0 0 16 16" fill="none" xmlns="http://www.w3.org/2000/svg">
<path fill-rule="evenodd" clip-rule="evenodd" d="M6.21916 7.67629C6.43977 7.83585 6.43996 8.1644 6.21954 8.32423L2.63481 10.9235C2.37036 11.1152 2 10.9263 2 10.5997V5.40764C2 5.0812 2.36992 4.89222 2.63442 5.08353L6.21916 7.67629ZM11.5524 7.67629C11.773 7.83585 11.7732 8.1644 11.5528 8.32423L7.96806 10.9235C7.70361 11.1152 7.33325 10.9263 7.33325 10.5997V5.40764C7.33325 5.0812 7.70317 4.89222 7.96767 5.08353L11.5524 7.67629ZM14 5.49966C14 5.22352 13.7761 4.99966 13.5 4.99966C13.2238 4.99966 13 5.22352 13 5.49966V10.4997C13 10.7758 13.2238 10.9997 13.5 10.9997C13.7761 10.9997 14 10.7758 14 10.4997V5.49966Z" fill="white"/>
</svg>
