<svg width="16" height="16" viewBox="0 0 16 16" fill="none" xmlns="http://www.w3.org/2000/svg">
<path fill-rule="evenodd" clip-rule="evenodd" d="M9.78084 7.67629C9.56023 7.83585 9.56004 8.1644 9.78046 8.32423L13.3652 10.9235C13.6296 11.1152 14 10.9263 14 10.5997V5.40764C14 5.0812 13.6301 4.89222 13.3656 5.08353L9.78084 7.67629ZM4.44759 7.67629C4.22698 7.83585 4.22679 8.1644 4.44721 8.32423L8.03194 10.9235C8.29639 11.1152 8.66675 10.9263 8.66675 10.5997V5.40764C8.66675 5.0812 8.29683 4.89222 8.03233 5.08353L4.44759 7.67629ZM2.00004 5.49966C2.00004 5.22352 2.2239 4.99966 2.50004 4.99966C2.77618 4.99966 3.00004 5.22352 3.00004 5.49966V10.4997C3.00004 10.7758 2.77618 10.9997 2.50004 10.9997C2.2239 10.9997 2.00004 10.7758 2.00004 10.4997V5.49966Z" fill="white"/>
</svg>
