<svg viewBox="0 0 16 16" width="16" height="16"><path d="M9.7808 7.67626C9.56019 7.83582 9.56 8.16437 9.78042 8.3242L13.3652 10.9235C13.6296 11.1152 14 10.9263 14 10.5996V5.40761C14 5.08117 13.63 4.89219 13.3655 5.0835L9.7808 7.67626ZM4.44755 7.67626C4.22694 7.83582 4.22675 8.16437 4.44717 8.3242L8.0319 10.9235C8.29635 11.1152 8.66671 10.9263 8.66671 10.5996V5.40761C8.66671 5.08117 8.29679 4.89219 8.03229 5.0835L4.44755 7.67626ZM2 5.49963C2 5.22349 2.22386 4.99963 2.5 4.99963 2.77614 4.99963 3 5.22349 3 5.49963V10.4996C3 10.7758 2.77614 10.9996 2.5 10.9996 2.22386 10.9996 2 10.7758 2 10.4996V5.49963Z"></path></svg>