<svg viewBox="0 0 16 16" width="16" height="16"><path d="M6.21916 7.67626C6.43977 7.83582 6.43996 8.16437 6.21954 8.3242L2.63481 10.9235C2.37036 11.1152 2 10.9263 2 10.5996V5.40761C2 5.08117 2.36992 4.89219 2.63442 5.0835L6.21916 7.67626ZM11.5524 7.67626C11.773 7.83582 11.7732 8.16437 11.5528 8.3242L7.96806 10.9235C7.70361 11.1152 7.33325 10.9263 7.33325 10.5996V5.40761C7.33325 5.08117 7.70317 4.89219 7.96767 5.0835L11.5524 7.67626ZM14 5.49963C14 5.22349 13.7761 4.99963 13.5 4.99963 13.2238 4.99963 13 5.22349 13 5.49963V10.4996C13 10.7758 13.2238 10.9996 13.5 10.9996 13.7761 10.9996 14 10.7758 14 10.4996V5.49963Z"></path></svg>