<svg viewBox="0 0 16 16" width="16" height="16"><path d="M15 8C15 11.866 11.866 15 8 15 4.13401 15 1 11.866 1 8 1 4.13401 4.13401 1 8 1 11.866 1 15 4.13401 15 8ZM11.3453 7.03033C11.6382 6.73744 11.6382 6.26256 11.3453 5.96967 11.0524 5.67678 10.5775 5.67678 10.2846 5.96967L7.13989 9.11441 5.99516 7.96967C5.70226 7.67678 5.22739 7.67678 4.9345 7.96967 4.6416 8.26256 4.6416 8.73744 4.93449 9.03033L6.60956 10.7054C6.75021 10.8461 6.94098 10.9251 7.13989 10.9251 7.33881 10.9251 7.52957 10.8461 7.67022 10.7054L11.3453 7.03033Z"></path></svg>