<svg viewBox="0 0 16 16" width="16" height="16"><path d="M8 15C11.866 15 15 11.866 15 8 15 4.13401 11.866 1 8 1 4.13401 1 1 4.13401 1 8 1 11.866 4.13401 15 8 15ZM14 8C14 11.3137 11.3137 14 8 14 4.68629 14 2 11.3137 2 8 2 4.68629 4.68629 2 8 2 11.3137 2 14 4.68629 14 8ZM11.1685 6.14645C11.3638 6.34171 11.3638 6.65829 11.1685 6.85355L7.49346 10.5286C7.3997 10.6224 7.27252 10.6751 7.13991 10.6751 7.0073 10.6751 6.88012 10.6224 6.78636 10.5286L5.11129 8.85355C4.91603 8.65829 4.91603 8.34171 5.11129 8.14645 5.30655 7.95118 5.62314 7.95118 5.8184 8.14645L7.13991 9.46797 10.4614 6.14645C10.6567 5.95118 10.9733 5.95118 11.1685 6.14645Z"></path></svg>