<svg viewBox="0 0 16 16" width="16" height="16"><path d="M12.4868 5.54691C12.71 5.32375 12.71 4.96194 12.4868 4.73878 12.2637 4.51563 11.9019 4.51563 11.6787 4.73878L6.36847 10.049 4.11836 7.7989C3.89521 7.57574 3.5334 7.57574 3.31024 7.7989 3.08709 8.02205 3.08709 8.38386 3.31024 8.60702L5.96441 11.2612C6.07158 11.3684 6.21692 11.4286 6.36847 11.4286 6.52003 11.4286 6.66537 11.3684 6.77254 11.2612L12.4868 5.54691ZM1.42859 1.71427C1.42859 1.55648 1.55651 1.42856 1.7143 1.42856H14.2857C14.4435 1.42856 14.5714 1.55648 14.5714 1.71427V14.2857C14.5714 14.4435 14.4435 14.5714 14.2857 14.5714H1.7143C1.55651 14.5714 1.42859 14.4435 1.42859 14.2857V1.71427ZM2.28573 13.7143H13.7143V2.2857H2.28573V13.7143Z"></path></svg>