<svg viewBox="0 0 16 16" width="16" height="16"><path d="M3.29508 3.29499C3.68522 2.90484 4.31535 2.90485 4.70549 3.29499L8.00029 6.5872 11.295 3.29499C11.6851 2.90485 12.3149 2.90485 12.705 3.29499 13.0951 3.68513 13.0951 4.31484 12.705 4.70499L9.41308 8 12.705 11.295C13.0951 11.6851 13.0951 12.3148 12.705 12.705 12.3149 13.0951 11.6852 13.0951 11.295 12.705L8.00029 9.41279 4.70501 12.705C4.31486 13.0951 3.68515 13.0951 3.29501 12.705 2.90487 12.3148 2.90495 11.6851 3.29507 11.295L6.5875 8 3.29507 4.70499C2.90493 4.31483 2.90495 3.68511 3.29508 3.29499Z"></path></svg>