<svg viewBox="0 0 16 16" width="16" height="16"><path d="M3.84679 3.14645C3.65176 2.95142 3.34129 2.95143 3.14627 3.14645 2.95126 3.34146 2.95123 3.65193 3.14627 3.84697L7.29391 8.00002 3.1465 12.1532C2.95143 12.3483 2.95118 12.6588 3.14615 12.8537 3.34118 13.0488 3.65177 13.0488 3.84679 12.8537L8.00043 8.70654 12.1533 12.8537C12.3483 13.0488 12.6588 13.0488 12.8538 12.8537 13.0488 12.6587 13.0488 12.3483 12.8538 12.1532L8.70695 8.00002 12.8538 3.84697C13.0488 3.65195 13.0488 3.34125 12.8538 3.14623 12.6588 2.9512 12.3483 2.95129 12.1533 3.14631L8.00041 7.29353 3.84679 3.14645Z"></path></svg>