<svg width="16" height="16" viewBox="0 0 16 16" fill="none" xmlns="http://www.w3.org/2000/svg">
<path fill-rule="evenodd" clip-rule="evenodd" d="M2 3C1.44772 3 1 3.44772 1 4V12C1 12.5523 1.44772 13 2 13H14C14.5523 13 15 12.5523 15 12V4C15 3.44772 14.5523 3 14 3H2ZM7.82925 9.17632C7.51725 9.71582 6.97125 10.2423 5.98325 10.2423C4.71575 10.2423 3.70825 9.33232 3.70825 7.99982C3.70825 6.66732 4.71575 5.75732 5.98325 5.75732C6.97125 5.75732 7.52375 6.27732 7.82925 6.81682L7.03625 7.20682C6.85425 6.85582 6.46425 6.57632 5.98325 6.57632C5.22925 6.57632 4.65725 7.18082 4.65725 7.99982C4.65725 8.81882 5.22925 9.42332 5.98325 9.42332C6.46425 9.42332 6.85425 9.15032 7.03625 8.79282L7.82925 9.17632ZM12.2917 9.17632C11.9797 9.71582 11.4337 10.2423 10.4457 10.2423C9.17815 10.2423 8.17065 9.33232 8.17065 7.99982C8.17065 6.66732 9.17815 5.75732 10.4457 5.75732C11.4337 5.75732 11.9862 6.27732 12.2917 6.81682L11.4987 7.20682C11.3167 6.85582 10.9267 6.57632 10.4457 6.57632C9.69165 6.57632 9.11965 7.18082 9.11965 7.99982C9.11965 8.81882 9.69165 9.42332 10.4457 9.42332C10.9267 9.42332 11.3167 9.15032 11.4987 8.79282L12.2917 9.17632Z" fill="white"/>
</svg>
