<svg viewBox="0 0 16 16" width="16" height="16"><path d="M9.24248 5.35355C9.43774 5.15829 9.43774 4.84171 9.24248 4.64645 9.04721 4.45118 8.73063 4.45118 8.53537 4.64645L6.9283 6.25351C6.55032 6.6315 6.81803 7.27778 7.35257 7.27778H7.68184L6.7576 8.202C6.56233 8.39726 6.56233 8.71384 6.75759 8.9091 6.95285 9.10437 7.26943 9.10437 7.46469 8.90911L9.07181 7.30205C9.4498 6.92407 9.1821 6.27778 8.64755 6.27778H8.31825L9.24248 5.35355ZM1.57143 2C1.25584 2 1 2.25584 1 2.57143V11.4286C1 11.7442 1.25584 12 1.57143 12H14.4286C14.7442 12 15 11.7442 15 11.4286V2.57143C15 2.25584 14.7442 2 14.4286 2H1.57143ZM2 3H14V11H2V3ZM4.21429 13.5C4.21429 13.2239 4.43815 13 4.71429 13H11.2844C11.5605 13 11.7844 13.2239 11.7844 13.5 11.7844 13.7761 11.5605 14 11.2844 14H4.71429C4.43815 14 4.21429 13.7761 4.21429 13.5Z"></path></svg>