<svg viewBox="0 0 16 16" width="16" height="16"><path d="M9.99988 6C9.99988 7.10457 9.10445 8 7.99988 8 6.89531 8 5.99988 7.10457 5.99988 6 5.99988 4.89543 6.89531 4 7.99988 4 9.10445 4 9.99988 4.89543 9.99988 6ZM8.99988 6C8.99988 5.44772 8.55216 5 7.99988 5 7.44759 5 6.99988 5.44772 6.99988 6 6.99988 6.55228 7.44759 7 7.99988 7 8.55216 7 8.99988 6.55228 8.99988 6ZM3.099 5.901C3.099 3.19425 5.29325 1 7.99999 1 10.7067 1 12.901 3.19425 12.901 5.901V6.15035C12.901 7.10864 12.6336 8.04794 12.129 8.86259L8.49926 14.722C8.26963 15.0927 7.73036 15.0927 7.50072 14.722L3.87101 8.86259C3.36636 8.04794 3.099 7.10864 3.099 6.15035V5.901ZM4.099 6.15035C4.099 6.92258 4.31445 7.6795 4.72112 8.33598L7.99999 13.629 11.2789 8.33597C11.6855 7.6795 11.901 6.92258 11.901 6.15035V5.901C11.901 3.74654 10.1545 2 7.99999 2 5.84553 2 4.099 3.74654 4.099 5.901V6.15035Z"></path></svg>