<svg width="16" height="16" viewBox="0 0 16 16" fill="none" xmlns="http://www.w3.org/2000/svg">
<path fill-rule="evenodd" clip-rule="evenodd" d="M7.99999 1C5.29325 1 3.099 3.19425 3.099 5.901V6.15035C3.099 7.10864 3.36636 8.04794 3.87101 8.86259L7.50072 14.722C7.73036 15.0927 8.26963 15.0927 8.49926 14.722L12.129 8.86259C12.6336 8.04794 12.901 7.10864 12.901 6.15035V5.901C12.901 3.19425 10.7067 1 7.99999 1ZM7.99994 8C9.10451 8 9.99994 7.10457 9.99994 6C9.99994 4.89543 9.10451 4 7.99994 4C6.89537 4 5.99994 4.89543 5.99994 6C5.99994 7.10457 6.89537 8 7.99994 8Z" fill="white"/>
</svg>
