<svg viewBox="0 0 16 16" width="16" height="16"><path d="M7.48814 6.66419C8.19097 6.66419 8.76074 6.10135 8.76074 5.40705 8.76074 4.71275 8.19097 4.14991 7.48814 4.14991 6.7853 4.14991 6.21554 4.71275 6.21554 5.40705 6.21554 6.10135 6.7853 6.66419 7.48814 6.66419ZM7.48814 5.66419C7.32603 5.66419 7.21554 5.53758 7.21554 5.40705 7.21554 5.27652 7.32603 5.14991 7.48814 5.14991 7.65025 5.14991 7.76074 5.27652 7.76074 5.40705 7.76074 5.53758 7.65025 5.66419 7.48814 5.66419ZM6.21549 7.92118C6.21549 8.61548 5.64572 9.17832 4.94289 9.17832 4.24005 9.17832 3.67029 8.61548 3.67029 7.92118 3.67029 7.22688 4.24005 6.66404 4.94289 6.66404 5.64572 6.66404 6.21549 7.22688 6.21549 7.92118ZM5.21549 7.92118C5.21549 7.79065 5.105 7.66404 4.94289 7.66404 4.78078 7.66404 4.67029 7.79065 4.67029 7.92118 4.67029 8.0517 4.78078 8.17832 4.94289 8.17832 5.105 8.17832 5.21549 8.0517 5.21549 7.92118ZM11.3059 7.92118C11.3059 8.61548 10.7362 9.17832 10.0333 9.17832 9.3305 9.17832 8.76074 8.61548 8.76074 7.92118 8.76074 7.22688 9.3305 6.66404 10.0333 6.66404 10.7362 6.66404 11.3059 7.22688 11.3059 7.92118ZM10.3059 7.92118C10.3059 7.79065 10.1954 7.66404 10.0333 7.66404 9.87123 7.66404 9.76074 7.79065 9.76074 7.92118 9.76074 8.05171 9.87123 8.17832 10.0333 8.17832 10.1954 8.17832 10.3059 8.05171 10.3059 7.92118ZM8.76077 10.4353C8.76077 11.1296 8.19101 11.6925 7.48818 11.6925 6.78534 11.6925 6.21558 11.1296 6.21558 10.4353 6.21558 9.74104 6.78534 9.1782 7.48818 9.1782 8.19101 9.1782 8.76077 9.74104 8.76077 10.4353ZM7.76077 10.4353C7.76077 10.3048 7.65028 10.1782 7.48818 10.1782 7.32607 10.1782 7.21558 10.3048 7.21558 10.4353 7.21558 10.5659 7.32607 10.6925 7.48818 10.6925 7.65028 10.6925 7.76077 10.5659 7.76077 10.4353ZM10.7695 12.5C12.2004 11.5047 13.1353 9.86016 13.1353 7.99997 13.1353 4.96241 10.6425 2.49997 7.56763 2.49997 4.49271 2.49997 2 4.96241 2 7.99997 2 11.0331 4.48551 13.4928 7.55429 13.5 7.55702 13.5 7.55976 13.5 7.5625 13.5H13.5C13.7761 13.5 14 13.2762 14 13 14 12.7239 13.7761 12.5 13.5 12.5H10.7695ZM7.56763 12.5C5.03344 12.5 3 10.4738 3 7.99997 3 5.52618 5.03344 3.49997 7.56763 3.49997 10.1018 3.49997 12.1353 5.52618 12.1353 7.99997 12.1353 10.4738 10.1018 12.5 7.56763 12.5Z"></path></svg>