<svg viewBox="0 0 16 16" width="16" height="16"><path d="M3.52756 4.49121C3.52756 4.21507 3.7507 3.99121 4.02596 3.99121H8.64457C8.91983 3.99121 9.14297 4.21507 9.14297 4.49121 9.14297 4.76735 8.91983 4.99121 8.64457 4.99121H4.02596C3.7507 4.99121 3.52756 4.76735 3.52756 4.49121ZM3.52757 11.4824C3.52757 11.2063 3.75072 10.9824 4.02598 10.9824H8.64459C8.91985 10.9824 9.14299 11.2063 9.14299 11.4824 9.14299 11.7586 8.91985 11.9824 8.64459 11.9824H4.02598C3.75072 11.9824 3.52757 11.7586 3.52757 11.4824ZM4.0104 6.31931C3.73514 6.31931 3.512 6.54317 3.512 6.81931 3.512 7.09545 3.73514 7.31931 4.0104 7.31931H4.99496C5.27022 7.31931 5.49336 7.09545 5.49336 6.81931 5.49336 6.54317 5.27022 6.31931 4.99496 6.31931H4.0104ZM3.512 9.15137C3.512 8.87522 3.73514 8.65137 4.0104 8.65137H4.99496C5.27022 8.65137 5.49336 8.87522 5.49336 9.15137 5.49336 9.42751 5.27022 9.65137 4.99496 9.65137H4.0104C3.73514 9.65137 3.512 9.42751 3.512 9.15137ZM6.02798 7.31647C6.02798 6.76418 6.47427 6.31647 7.02479 6.31647H8.09827C8.64879 6.31647 9.09508 6.76418 9.09508 7.31647V8.6498C9.09508 9.20209 8.64879 9.6498 8.09827 9.6498H7.02479C6.47427 9.6498 6.02798 9.20209 6.02798 8.6498V7.31647ZM7.02479 7.31647V8.6498L8.09827 8.6498V7.31647H7.02479ZM2 3C2 2.44772 2.44628 2 2.99681 2H9.80303C10.3535 2 10.7998 2.44771 10.7998 3V4.6665H12.7865C13.4567 4.6665 14 5.21155 14 5.88389V11.8941C14 13.0486 13.0738 13.9862 11.9261 13.9997L2.99681 14C2.44629 14 2 13.5523 2 13L2 3ZM10.1144 13C9.91625 12.6786 9.80192 12.2997 9.80192 11.8941V5.51499C9.80192 5.50027 9.80229 5.48564 9.80303 5.4711L9.80303 3 2.99681 3 2.99681 13H10.1144ZM12.7865 5.6665H10.7987V11.8941C10.7987 12.5048 11.2922 12.9998 11.901 12.9998 12.5097 12.9998 13.0032 12.5048 13.0032 11.8941V5.88389C13.0032 5.76383 12.9062 5.6665 12.7865 5.6665Z"></path></svg>