<svg width="16" height="16" viewBox="0 0 16 16" fill="none" xmlns="http://www.w3.org/2000/svg">
<path fill-rule="evenodd" clip-rule="evenodd" d="M11.9041 2.01086C12.4176 2.06708 12.897 2.33509 13.281 2.71876C13.6651 3.10259 13.9331 3.58193 13.9892 4.09554C14.0468 4.6231 13.8751 5.14758 13.4504 5.57239L13.2811 5.74173C13.2747 5.74814 13.2682 5.75433 13.2615 5.76028C13.2615 5.76298 13.2615 5.76568 13.2615 5.76838C13.2615 5.89079 13.2129 6.00819 13.1263 6.09475L12.0023 7.21868C11.9232 7.29778 11.8225 7.34216 11.7192 7.35182L5.95065 13.1198C5.89 13.1804 5.81363 13.223 5.73014 13.2426L2.56737 13.9877C2.41176 14.0244 2.24826 13.9779 2.13521 13.8648C2.02216 13.7518 1.97566 13.5883 2.01229 13.4327L2.757 10.2695C2.77667 10.186 2.81923 10.1096 2.87991 10.0489L8.64814 4.2809C8.65772 4.17744 8.70212 4.0766 8.78133 3.99739L9.90501 2.87365C9.99729 2.78137 10.1189 2.73633 10.2399 2.73854C10.2458 2.73192 10.2519 2.72543 10.2582 2.71907L10.4273 2.55005C10.8518 2.12472 11.3765 1.9531 11.9041 2.01086ZM12.7009 5.01656L10.9834 3.29931L11.0803 3.20246C11.3094 2.97291 11.558 2.90157 11.8036 2.92845C12.0633 2.95688 12.3575 3.10087 12.6285 3.37172C12.8994 3.6424 13.0432 3.93623 13.0716 4.19578C13.0984 4.44137 13.0273 4.69005 12.7977 4.91974L12.7009 5.01656ZM4.71229 12.5341L3.46567 11.2874L3.08173 12.9182L4.71229 12.5341Z" fill="white"/>
</svg>
