<svg viewBox="0 0 16 16" width="16" height="16"><path d="M13.2783 2.72665C12.9125 2.33813 12.4262 2.08444 11.8983 2.00665 11.6281 1.97551 11.3544 2.00814 11.0991 2.10192 10.8438 2.1957 10.6141 2.34802 10.4283 2.54665L10.2583 2.71665C10.1974 2.7154 10.1369 2.72625 10.0802 2.74856 10.0236 2.77088 9.97194 2.80422 9.92828 2.84665L8.77828 4.00665C8.70329 4.08173 8.65724 4.18091 8.64828 4.28665L2.87828 10.0566C2.8195 10.1181 2.77809 10.194 2.75828 10.2766L1.99828 13.4366C1.98395 13.5133 1.98852 13.5923 2.0116 13.6668 2.03467 13.7413 2.07555 13.8091 2.1307 13.8642 2.18585 13.9194 2.25361 13.9603 2.32811 13.9833 2.40261 14.0064 2.48161 14.011 2.55828 13.9966L5.71828 13.2466C5.82217 13.2381 5.92045 13.196 5.99828 13.1266L11.7683 7.35665C11.8562 7.3373 11.9363 7.29202 11.9983 7.22665L13.1283 6.09665C13.2115 6.01092 13.2582 5.89615 13.2583 5.77665L13.4283 5.60665C13.6367 5.42073 13.7973 5.18736 13.8965 4.92628 13.9957 4.6652 14.0306 4.38407 13.9983 4.10665 13.9252 3.57721 13.6707 3.0895 13.2783 2.72665ZM3.07828 12.9266L3.46828 11.2966 4.70828 12.5366 3.07828 12.9266ZM5.61828 12.1466L3.85828 10.3866 9.26828 5.00665 10.9983 6.73665 5.61828 12.1466ZM11.7683 6.14665L9.84828 4.23665 10.2283 3.85665 12.1483 5.77665 11.7683 6.14665ZM12.7717 4.92628L12.6683 5.01665 10.9983 3.30665 11.0983 3.20665C11.1881 3.10757 11.3003 3.03139 11.4256 2.98442 11.5508 2.93746 11.6854 2.92108 11.8183 2.93665 12.1364 2.98641 12.4286 3.14132 12.6483 3.37665 12.8836 3.59635 13.0385 3.88858 13.0883 4.20665 13.1014 4.34114 13.0819 4.47681 13.0314 4.60216 12.9809 4.7275 12.8744 4.83844 12.7717 4.92628Z"></path></svg>