<svg viewBox="0 0 16 16" width="16" height="16"><path d="M13.2779 2.72476C12.912 2.33624 12.4258 2.08255 11.8979 2.00476 11.6277 1.97362 11.354 2.00625 11.0987 2.10003 10.8434 2.19381 10.6136 2.34613 10.4279 2.54476L10.2579 2.71476C10.1968 2.71171 10.1357 2.72173 10.0788 2.74415 10.0219 2.76657 9.97046 2.80087 9.92786 2.84476L8.77786 4.00476C8.6997 4.07759 8.65306 4.17805 8.64786 4.28476L2.87786 10.0548C2.81909 10.1162 2.77767 10.1921 2.75786 10.2748L1.99786 13.4348C1.98786 13.5077 1.98786 13.5818 1.99786 13.6548 2.0286 13.7732 2.10429 13.8749 2.20886 13.9384 2.31343 14.0019 2.43863 14.0221 2.55786 13.9948L5.71786 13.2448C5.82175 13.2362 5.92003 13.1941 5.99786 13.1248L11.7679 7.35476C11.8568 7.33799 11.9376 7.29228 11.9979 7.22476L13.1279 6.09476C13.2111 6.00903 13.2577 5.89426 13.2579 5.77476L13.4279 5.60476C13.6363 5.41883 13.7969 5.18547 13.8961 4.92439 13.9953 4.6633 14.0302 4.38217 13.9979 4.10476 13.9201 3.57682 13.6664 3.09058 13.2779 2.72476ZM3.07786 12.9248L3.46786 11.2948 4.70786 12.5348 3.07786 12.9248ZM12.7979 4.92476L12.6979 5.02476 10.9979 3.30476 11.0979 3.20476C11.1877 3.10568 11.2999 3.02949 11.4252 2.98253 11.5504 2.93557 11.685 2.91919 11.8179 2.93476 12.1359 2.98452 12.4282 3.13943 12.6479 3.37476 12.8832 3.59446 13.0381 3.88668 13.0879 4.20476 13.101 4.33925 13.0815 4.47492 13.031 4.60026 12.9805 4.72561 12.9005 4.83692 12.7979 4.92476Z"></path></svg>