<svg width="16" height="16" viewBox="0 0 16 16" fill="none" xmlns="http://www.w3.org/2000/svg">
<path d="M1.667 2.66699C1.49027 2.66699 1.32077 2.73713 1.19571 2.862C1.07065 2.98687 1.00026 3.15627 1 3.33299V12.667C1 13.035 1.298 13.333 1.667 13.333H14.333C14.5097 13.333 14.6792 13.2629 14.8043 13.138C14.9293 13.0131 14.9997 12.8437 15 12.667V3.33299C14.9997 3.15627 14.9293 2.98687 14.8043 2.862C14.6792 2.73713 14.5097 2.66699 14.333 2.66699H1.667ZM3.5 5.33299C3.5 5.20038 3.55268 5.07321 3.64645 4.97944C3.74021 4.88567 3.86739 4.83299 4 4.83299H8C8.13261 4.83299 8.25979 4.88567 8.35355 4.97944C8.44732 5.07321 8.5 5.20038 8.5 5.33299C8.5 5.4656 8.44732 5.59278 8.35355 5.68655C8.25979 5.78031 8.13261 5.83299 8 5.83299H4C3.86739 5.83299 3.74021 5.78031 3.64645 5.68655C3.55268 5.59278 3.5 5.4656 3.5 5.33299ZM3.5 7.99999C3.5 7.86738 3.55268 7.74021 3.64645 7.64644C3.74021 7.55267 3.86739 7.49999 4 7.49999H6.667C6.79961 7.49999 6.92679 7.55267 7.02055 7.64644C7.11432 7.74021 7.167 7.86738 7.167 7.99999C7.167 8.1326 7.11432 8.25978 7.02055 8.35355C6.92679 8.44731 6.79961 8.49999 6.667 8.49999H4C3.86739 8.49999 3.74021 8.44731 3.64645 8.35355C3.55268 8.25978 3.5 8.1326 3.5 7.99999ZM3.5 10.667C3.5 10.5344 3.55268 10.4072 3.64645 10.3134C3.74021 10.2197 3.86739 10.167 4 10.167H5.333C5.46561 10.167 5.59279 10.2197 5.68655 10.3134C5.78032 10.4072 5.833 10.5344 5.833 10.667C5.833 10.7996 5.78032 10.9268 5.68655 11.0205C5.59279 11.1143 5.46561 11.167 5.333 11.167H4C3.86739 11.167 3.74021 11.1143 3.64645 11.0205C3.55268 10.9268 3.5 10.7996 3.5 10.667ZM6.833 10.667C6.833 10.5344 6.88568 10.4072 6.97945 10.3134C7.07321 10.2197 7.20039 10.167 7.333 10.167H12C12.1326 10.167 12.2598 10.2197 12.3536 10.3134C12.4473 10.4072 12.5 10.5344 12.5 10.667C12.5 10.7996 12.4473 10.9268 12.3536 11.0205C12.2598 11.1143 12.1326 11.167 12 11.167H7.333C7.20039 11.167 7.07321 11.1143 6.97945 11.0205C6.88568 10.9268 6.833 10.7996 6.833 10.667ZM8.167 7.99999C8.167 7.86738 8.21968 7.74021 8.31345 7.64644C8.40722 7.55267 8.53439 7.49999 8.667 7.49999H12C12.1326 7.49999 12.2598 7.55267 12.3536 7.64644C12.4473 7.74021 12.5 7.86738 12.5 7.99999C12.5 8.1326 12.4473 8.25978 12.3536 8.35355C12.2598 8.44731 12.1326 8.49999 12 8.49999H8.667C8.53439 8.49999 8.40722 8.44731 8.31345 8.35355C8.21968 8.25978 8.167 8.1326 8.167 7.99999ZM9.5 5.33299C9.5 5.20038 9.55268 5.07321 9.64645 4.97944C9.74021 4.88567 9.86739 4.83299 10 4.83299H12C12.1326 4.83299 12.2598 4.88567 12.3536 4.97944C12.4473 5.07321 12.5 5.20038 12.5 5.33299C12.5 5.4656 12.4473 5.59278 12.3536 5.68655C12.2598 5.78031 12.1326 5.83299 12 5.83299H10C9.86739 5.83299 9.74021 5.78031 9.64645 5.68655C9.55268 5.59278 9.5 5.4656 9.5 5.33299Z" fill="white"/>
</svg>
