<svg viewBox="0 0 16 16" width="16" height="16"><path d="M1.667 2.667C1.49027 2.667 1.32077 2.73714 1.19571 2.86201 1.07065 2.98688 1.00026 3.15627 1 3.333V12.667C1 13.035 1.298 13.333 1.667 13.333H14.333C14.5097 13.333 14.6792 13.2629 14.8043 13.138 14.9293 13.0131 14.9997 12.8437 15 12.667V3.333C14.9997 3.15627 14.9293 2.98688 14.8043 2.86201 14.6792 2.73714 14.5097 2.667 14.333 2.667H1.667ZM3.5 5.333C3.5 5.20039 3.55268 5.07321 3.64645 4.97945 3.74021 4.88568 3.86739 4.833 4 4.833H8C8.13261 4.833 8.25979 4.88568 8.35355 4.97945 8.44732 5.07321 8.5 5.20039 8.5 5.333 8.5 5.46561 8.44732 5.59279 8.35355 5.68655 8.25979 5.78032 8.13261 5.833 8 5.833H4C3.86739 5.833 3.74021 5.78032 3.64645 5.68655 3.55268 5.59279 3.5 5.46561 3.5 5.333ZM3.5 8C3.5 7.86739 3.55268 7.74021 3.64645 7.64645 3.74021 7.55268 3.86739 7.5 4 7.5H6.667C6.79961 7.5 6.92679 7.55268 7.02055 7.64645 7.11432 7.74021 7.167 7.86739 7.167 8 7.167 8.13261 7.11432 8.25979 7.02055 8.35355 6.92679 8.44732 6.79961 8.5 6.667 8.5H4C3.86739 8.5 3.74021 8.44732 3.64645 8.35355 3.55268 8.25979 3.5 8.13261 3.5 8ZM3.5 10.667C3.5 10.5344 3.55268 10.4072 3.64645 10.3134 3.74021 10.2197 3.86739 10.167 4 10.167H5.333C5.46561 10.167 5.59279 10.2197 5.68655 10.3134 5.78032 10.4072 5.833 10.5344 5.833 10.667 5.833 10.7996 5.78032 10.9268 5.68655 11.0206 5.59279 11.1143 5.46561 11.167 5.333 11.167H4C3.86739 11.167 3.74021 11.1143 3.64645 11.0206 3.55268 10.9268 3.5 10.7996 3.5 10.667ZM6.833 10.667C6.833 10.5344 6.88568 10.4072 6.97945 10.3134 7.07321 10.2197 7.20039 10.167 7.333 10.167H12C12.1326 10.167 12.2598 10.2197 12.3536 10.3134 12.4473 10.4072 12.5 10.5344 12.5 10.667 12.5 10.7996 12.4473 10.9268 12.3536 11.0206 12.2598 11.1143 12.1326 11.167 12 11.167H7.333C7.20039 11.167 7.07321 11.1143 6.97945 11.0206 6.88568 10.9268 6.833 10.7996 6.833 10.667ZM8.167 8C8.167 7.86739 8.21968 7.74021 8.31345 7.64645 8.40722 7.55268 8.53439 7.5 8.667 7.5H12C12.1326 7.5 12.2598 7.55268 12.3536 7.64645 12.4473 7.74021 12.5 7.86739 12.5 8 12.5 8.13261 12.4473 8.25979 12.3536 8.35355 12.2598 8.44732 12.1326 8.5 12 8.5H8.667C8.53439 8.5 8.40722 8.44732 8.31345 8.35355 8.21968 8.25979 8.167 8.13261 8.167 8ZM9.5 5.333C9.5 5.20039 9.55268 5.07321 9.64645 4.97945 9.74021 4.88568 9.86739 4.833 10 4.833H12C12.1326 4.833 12.2598 4.88568 12.3536 4.97945 12.4473 5.07321 12.5 5.20039 12.5 5.333 12.5 5.46561 12.4473 5.59279 12.3536 5.68655 12.2598 5.78032 12.1326 5.833 12 5.833H10C9.86739 5.833 9.74021 5.78032 9.64645 5.68655 9.55268 5.59279 9.5 5.46561 9.5 5.333Z"></path></svg>