<svg viewBox="0 0 16 16" width="16" height="16"><path d="M3.5 5.33268C3.5 5.05654 3.72386 4.83268 4 4.83268H8C8.27614 4.83268 8.5 5.05654 8.5 5.33268 8.5 5.60882 8.27614 5.83268 8 5.83268H4C3.72386 5.83268 3.5 5.60882 3.5 5.33268ZM4 7.49967C3.72386 7.49967 3.5 7.72353 3.5 7.99967 3.5 8.27581 3.72386 8.49967 4 8.49967H6.66667C6.94281 8.49967 7.16667 8.27581 7.16667 7.99967 7.16667 7.72353 6.94281 7.49967 6.66667 7.49967H4ZM3.5 10.6667C3.5 10.3905 3.72386 10.1667 4 10.1667H5.33333C5.60948 10.1667 5.83333 10.3905 5.83333 10.6667 5.83333 10.9428 5.60948 11.1667 5.33333 11.1667H4C3.72386 11.1667 3.5 10.9428 3.5 10.6667ZM7.3335 10.1667C7.05735 10.1667 6.8335 10.3905 6.8335 10.6667 6.8335 10.9428 7.05735 11.1667 7.3335 11.1667H12.0002C12.2763 11.1667 12.5002 10.9428 12.5002 10.6667 12.5002 10.3905 12.2763 10.1667 12.0002 10.1667L7.3335 10.1667ZM8.1665 7.99967C8.1665 7.72353 8.39036 7.49967 8.6665 7.49967H11.9998C12.276 7.49967 12.4998 7.72353 12.4998 7.99967 12.4998 8.27581 12.276 8.49967 11.9998 8.49967H8.6665C8.39036 8.49967 8.1665 8.27581 8.1665 7.99967ZM10 4.83268C9.72386 4.83268 9.5 5.05654 9.5 5.33268 9.5 5.60882 9.72386 5.83268 10 5.83268H12C12.2761 5.83268 12.5 5.60882 12.5 5.33268 12.5 5.05654 12.2761 4.83268 12 4.83268H10ZM1.66667 2.66666C1.29848 2.66666 1 2.96514 1 3.33333V12.6667C1 13.0349 1.29848 13.3333 1.66667 13.3333H14.3333C14.7015 13.3333 15 13.0349 15 12.6667V3.33333C15 2.96514 14.7015 2.66666 14.3333 2.66666H1.66667ZM2 3.66666H14V12.3333H2V3.66666Z"></path></svg>