<svg width="16" height="16" viewBox="0 0 16 16" fill="none" xmlns="http://www.w3.org/2000/svg">
<path fill-rule="evenodd" clip-rule="evenodd" d="M10.8272 1.549C10.5482 1.38791 10.1939 1.44941 9.9855 1.69512L9.07018 2.77424C8.72446 2.70382 8.36657 2.66685 8.00005 2.66685C7.63353 2.66685 7.27565 2.70382 6.92992 2.77424L6.01465 1.69518C5.80624 1.44947 5.45193 1.38797 5.17291 1.54906L3.82719 2.32601C3.54817 2.48711 3.42428 2.8247 3.53286 3.12804L4.01005 4.46113C3.53664 4.99446 3.16854 5.62337 2.93834 6.31527L1.54743 6.56817C1.23043 6.6258 1.00002 6.90189 1.00002 7.22408L1.00001 8.77798C1.00001 9.10017 1.23043 9.37625 1.54742 9.43389L2.93894 9.68689C3.16915 10.378 3.53695 11.0062 4.00985 11.539L3.53284 12.8716C3.42426 13.1749 3.54815 13.5125 3.82718 13.6736L5.17289 14.4506C5.45192 14.6117 5.80622 14.5502 6.01463 14.3044L6.92937 13.226C7.27527 13.2965 7.63334 13.3335 8.00005 13.3335C8.36665 13.3335 8.72461 13.2965 9.0704 13.2261L9.98543 14.3049C10.1938 14.5506 10.5481 14.6121 10.8272 14.451L12.1729 13.674C12.4519 13.5129 12.5758 13.1753 12.4672 12.872L11.9901 11.5392C12.4631 11.0063 12.831 10.378 13.0612 9.68675L14.4526 9.43378C14.7696 9.37614 15 9.10005 15 8.77786L15 7.22397C15 6.90177 14.7696 6.62569 14.4526 6.56805L13.0617 6.31517C12.8315 5.62332 12.4634 4.99445 11.9901 4.46115L12.4673 3.12798C12.5759 2.82464 12.452 2.48705 12.173 2.32595L10.8272 1.549ZM9.16677 8.00049C9.16677 8.64483 8.64444 9.16716 8.0001 9.16716C7.35577 9.16716 6.83344 8.64483 6.83344 8.0005C6.83344 7.35616 7.35577 6.83383 8.0001 6.83383C8.64444 6.83383 9.16677 7.35616 9.16677 8.00049ZM10.6668 8.00049C10.6668 9.47325 9.47286 10.6672 8.0001 10.6672C6.52735 10.6672 5.33344 9.47325 5.33344 8.0005C5.33344 6.52774 6.52735 5.33383 8.0001 5.33383C9.47286 5.33383 10.6668 6.52774 10.6668 8.00049Z" fill="white"/>
</svg>
