<svg viewBox="0 0 16 16" width="16" height="16"><path d="M14.1889 6.67223L12.8559 6.3846C12.5702 5.71348 12.2846 5.13823 11.8085 4.65886L12.2846 3.41248C12.3798 3.12486 12.2846 2.83723 11.999 2.64548L10.7612 1.87848C10.4755 1.68673 10.1899 1.78261 9.99946 1.97436L9.04732 3.02898C8.66646 2.93311 8.38082 2.93311 7.99996 2.93311 7.6191 2.93311 7.33346 2.93311 6.9526 3.02898L6.09567 1.97436C5.90525 1.78261 5.6196 1.68673 5.33396 1.78261L4.00096 2.54961C3.71532 2.74136 3.6201 3.02898 3.71532 3.31661L4.19139 4.65886C3.71532 5.13823 3.42968 5.71348 3.14403 6.3846L1.81103 6.67223C1.52539 6.67223 1.33496 6.95985 1.33496 7.24748V8.78148C1.33496 9.0691 1.52539 9.35673 1.81103 9.4526L3.14403 9.74023C3.42968 10.3155 3.71532 10.8907 4.19139 11.3701L3.71532 12.6165C3.6201 12.9041 3.71532 13.1917 4.00096 13.3835L5.23875 14.1505C5.52439 14.3422 5.81003 14.2464 6.00046 14.0546L6.85739 13C7.14303 13.0959 7.52389 13.0959 7.90475 13.0959 8.2856 13.0959 8.57125 13.0959 8.9521 13L9.80903 14.0546C9.99946 14.2464 10.3803 14.3422 10.5707 14.1505L11.8085 13.3835C12.0942 13.1917 12.1894 12.9041 12.0942 12.6165L11.8085 11.3701C12.2846 10.8907 12.5702 10.2196 12.8559 9.54848L14.1889 9.26085C14.4745 9.35673 14.665 9.0691 14.665 8.78148V7.24748C14.665 6.95985 14.4745 6.67223 14.1889 6.67223ZM13.7128 8.49385L12.0942 8.78148 11.9037 9.35673C11.7133 9.93198 11.4277 10.4114 11.0468 10.7949L10.666 11.1784 11.2372 12.7124 10.3803 13.1917 9.33296 11.9454 8.76168 12.0412C8.47603 12.1371 8.19039 12.1371 7.90475 12.1371 7.6191 12.1371 7.33346 12.1371 7.04782 12.0412L6.47653 11.9454 5.42918 13.1917 4.57225 12.7124 5.14353 11.1784 4.76268 10.7949C4.38182 10.4114 4.09618 9.93198 3.90575 9.35673V8.78148L2.2871 8.49385V7.5351L3.90575 7.24748 4.09618 6.67223C4.2866 6.09698 4.57225 5.61761 4.9531 5.23411L5.33396 4.85061 4.76268 3.31661 5.6196 2.83723 6.66696 4.08361 7.23825 3.98773C7.42867 3.89186 7.71432 3.89186 7.99996 3.89186 8.2856 3.89186 8.57125 3.89186 8.85689 3.98773L9.42817 4.08361 10.4755 2.83723 11.3325 3.31661 10.7612 4.85061 11.142 5.23411C11.5229 5.61761 11.8085 6.09698 11.999 6.67223L12.1894 7.24748 13.7128 7.5351V8.49385ZM7.99996 5.42586C6.57175 5.42586 5.42918 6.57635 5.42918 8.01448 5.42918 9.4526 6.57175 10.6031 7.99996 10.6031 9.42817 10.6031 10.5707 9.4526 10.5707 8.01448 10.5707 6.57635 9.42817 5.42586 7.99996 5.42586ZM7.99996 9.64435C7.14303 9.64435 6.38132 8.87735 6.38132 8.01448 6.38132 7.1516 7.14303 6.3846 7.99996 6.3846 8.85689 6.3846 9.6186 7.1516 9.6186 8.01448 9.6186 8.87735 8.85689 9.64435 7.99996 9.64435Z"></path></svg>