<svg viewBox="0 0 16 16" width="16" height="16"><path d="M10.652 1.83306C10.3768 1.67416 10.0277 1.73161 9.81792 1.97032L9.10522 2.78129C8.74865 2.70616 8.37896 2.66664 8.00004 2.66664 7.62111 2.66664 7.2514 2.70616 6.89483 2.7813L6.18215 1.97036C5.97237 1.73166 5.62326 1.67421 5.34805 1.8331L3.98528 2.6199C3.71006 2.77879 3.58526 3.10985 3.6871 3.41088L4.03345 4.43471C3.54123 4.98198 3.16064 5.63166 2.92752 6.34789L1.8693 6.55954C1.55768 6.62186 1.33337 6.89547 1.33337 7.21326V8.78685C1.33337 9.10464 1.55768 9.37825 1.8693 9.44058L2.92758 9.65223C3.16071 10.3684 3.5413 11.0181 4.03352 11.5653L3.68719 12.5891C3.58536 12.8901 3.71016 13.2212 3.98537 13.3801L5.34814 14.1669C5.62335 14.3257 5.97246 14.2683 6.18224 14.0296L6.8949 13.2187C7.25146 13.2938 7.62113 13.3333 8.00004 13.3333 8.37894 13.3333 8.74861 13.2938 9.10516 13.2187L9.81785 14.0296C10.0276 14.2683 10.3767 14.3258 10.652 14.1669L12.0147 13.3801C12.2899 13.2212 12.4147 12.8901 12.3129 12.5891L11.9666 11.5653C12.4588 11.0181 12.8394 10.3684 13.0725 9.65223L14.1308 9.44057C14.4424 9.37825 14.6667 9.10464 14.6667 8.78685V7.21326C14.6667 6.89547 14.4424 6.62186 14.1308 6.55954L13.0726 6.34789C12.8394 5.63165 12.4588 4.98197 11.9666 4.43469L12.313 3.41084C12.4148 3.10981 12.29 2.77875 12.0148 2.61985L10.652 1.83306ZM9.33337 7.99974C9.33337 8.73612 8.73642 9.33307 8.00004 9.33307 7.26366 9.33307 6.66671 8.73612 6.66671 7.99974 6.66671 7.26336 7.26366 6.6664 8.00004 6.6664 8.73642 6.6664 9.33337 7.26336 9.33337 7.99974ZM10.6667 7.99974C10.6667 9.4725 9.4728 10.6664 8.00004 10.6664 6.52728 10.6664 5.33337 9.4725 5.33337 7.99974 5.33337 6.52698 6.52728 5.33307 8.00004 5.33307 9.4728 5.33307 10.6667 6.52698 10.6667 7.99974Z"></path></svg>