<svg width="16" height="16" viewBox="0 0 16 16" fill="none" xmlns="http://www.w3.org/2000/svg">
<path d="M8.32887 2.31664C8.2466 2.2204 8.12647 2.16501 8.00003 2.16501C7.87358 2.16501 7.75346 2.2204 7.67119 2.31664L1.38422 9.67118C1.27421 9.79988 1.249 9.98099 1.31967 10.135C1.39035 10.2889 1.54397 10.3876 1.71307 10.3876H5.32165V13.401C5.32165 13.6407 5.51553 13.835 5.75468 13.835H10.2454C10.4845 13.835 10.6784 13.6407 10.6784 13.401V10.3876H14.287C14.4561 10.3876 14.6097 10.2889 14.6804 10.135C14.7511 9.98099 14.7259 9.79988 14.6158 9.67118L8.32887 2.31664Z" fill="white"/>
</svg>
