<svg viewBox="0 0 16 16" width="16" height="16"><path d="M7.99994 2.16666C8.14594 2.16666 8.28465 2.23047 8.37964 2.34134L14.6019 9.60375C14.7289 9.75202 14.758 9.96067 14.6764 10.138 14.5948 10.3154 14.4174 10.4291 14.2222 10.4291H10.7222V13.3333C10.7222 13.6095 10.4983 13.8333 10.2222 13.8333H5.77772C5.50157 13.8333 5.27772 13.6095 5.27772 13.3333V10.4291H1.77772C1.58247 10.4291 1.40509 10.3154 1.32348 10.138 1.24188 9.96067 1.27099 9.75202 1.39802 9.60375L7.62024 2.34134C7.71523 2.23047 7.85394 2.16666 7.99994 2.16666ZM2.86452 9.42907H5.77772C6.05386 9.42907 6.27772 9.65293 6.27772 9.92907V12.8333H9.72216V9.92907C9.72216 9.65293 9.94602 9.42907 10.2222 9.42907H13.1354L7.99994 3.43514 2.86452 9.42907Z"></path></svg>