<svg viewBox="0 0 16 16" width="16" height="16"><path d="M10.9102 8.09611C10.9102 5.29291 11.9492 3.52403 13.1874 3.34096 11.9492 1.81465 9.88028 1 7.99901 1 5.93235 1 4.07167 1.89703 2.79003 3.32494 4.01446 3.56979 4.43099 4.59268 4.43099 6.1762H2.93421C2.93421 5.24485 2.73739 4.75744 2.18353 4.75744 1.93636 4.75744 1.74411 4.88329 1.62739 5.0984 1.60908 5.13501 1.59306 5.17162 1.57933 5.21053 1.53584 5.32952 1.51296 5.46453 1.51296 5.62243 1.51296 7.56293 4.69648 7.46453 4.69648 10.4462 4.69648 11.611 3.8039 12.6957 2.80147 12.6957 4.11974 14.1373 5.9232 15 7.99901 15 10.0176 15 11.8371 14.1442 13.1119 12.778 11.9378 12.4783 10.9102 10.7872 10.9102 8.09611ZM10.2442 12.7185H8.64212V8.73227H6.90961V12.7185H5.30755V3.52403H6.90961V7.22883H8.64212V3.52403H10.2442V12.7185ZM2.38494 11.2517C2.83122 11.2517 3.14935 10.8604 3.14935 10.2883 3.14935 9.10526 2.11259 8.87185 1.0003 7.87414 0.984279 9.9016 1.61366 11.2517 2.38494 11.2517ZM12.5008 7.94737C12.5008 6.40275 12.9539 4.85355 13.7733 4.85355 14.7528 4.85355 15 7.24485 15 8 15 9.65675 14.4782 11.1556 13.7733 11.1556 12.9311 11.1556 12.5008 9.57895 12.5008 7.94737Z"></path></svg>