<svg viewBox="0 0 16 16" width="16" height="16"><path d="M2 2.70008C2 2.31349 2.3134 2.00008 2.7 2.00008H6.63333C7.01993 2.00008 7.33333 2.31348 7.33333 2.70008V6.63342C7.33333 7.02002 7.01993 7.33342 6.63333 7.33342H2.7C2.3134 7.33342 2 7.02002 2 6.63342V2.70008ZM3.2 6.13342H6.13333V3.20008H3.2V6.13342ZM2 9.36659C2 8.97999 2.3134 8.66659 2.7 8.66659H6.63333C7.01993 8.66659 7.33333 8.97999 7.33333 9.36659V13.2999C7.33333 13.6865 7.01993 13.9999 6.63333 13.9999H2.7C2.3134 13.9999 2 13.6865 2 13.2999V9.36659ZM3.2 12.7999H6.13333V9.86659H3.2V12.7999ZM9.36669 2.00008C8.98009 2.00008 8.66669 2.31349 8.66669 2.70008V6.63342C8.66669 7.02002 8.98009 7.33342 9.36669 7.33342H13.3C13.6866 7.33342 14 7.02002 14 6.63342V2.70008C14 2.31348 13.6866 2.00008 13.3 2.00008H9.36669ZM9.86669 3.20008H12.8V6.13342H9.86669V3.20008ZM8.66675 9.36659C8.66675 8.97999 8.98015 8.66659 9.36675 8.66659H13.3001C13.6867 8.66659 14.0001 8.97999 14.0001 9.36659V13.2999C14.0001 13.6865 13.6867 13.9999 13.3001 13.9999H9.36675C8.98015 13.9999 8.66675 13.6865 8.66675 13.2999V9.36659ZM9.86675 12.7999H12.8001V9.86659H9.86675V12.7999Z"></path></svg>