<svg viewBox="0 0 16 16" width="16" height="16"><path d="M2.7 2.00008C2.3134 2.00008 2 2.31349 2 2.70008V6.63342C2 7.02002 2.3134 7.33342 2.7 7.33342H6.63333C7.01993 7.33342 7.33333 7.02002 7.33333 6.63342V2.70008C7.33333 2.31348 7.01993 2.00008 6.63333 2.00008H2.7ZM2.7 8.66659C2.3134 8.66659 2 8.97999 2 9.36659V13.2999C2 13.6865 2.3134 13.9999 2.7 13.9999H6.63333C7.01993 13.9999 7.33333 13.6865 7.33333 13.2999V9.36659C7.33333 8.97999 7.01993 8.66659 6.63333 8.66659H2.7ZM8.66669 2.70008C8.66669 2.31349 8.98009 2.00008 9.36669 2.00008H13.3C13.6866 2.00008 14 2.31348 14 2.70008V6.63342C14 7.02002 13.6866 7.33342 13.3 7.33342H9.36669C8.98009 7.33342 8.66669 7.02002 8.66669 6.63342V2.70008ZM9.36675 8.66659C8.98015 8.66659 8.66675 8.97999 8.66675 9.36659V13.2999C8.66675 13.6865 8.98015 13.9999 9.36675 13.9999H13.3001C13.6867 13.9999 14.0001 13.6865 14.0001 13.2999V9.36659C14.0001 8.97999 13.6867 8.66659 13.3001 8.66659H9.36675Z"></path></svg>