<svg viewBox="0 0 16 16" width="16" height="16"><path d="M11.5032 3.03466C12.0264 3.62731 12.4122 4.29848 12.661 5.00707 12.5328 5.01241 12.4054 5.02077 12.2788 5.03206 12.0609 5.05154 11.8456 5.07973 11.6331 5.11632 11.389 4.51525 11.0232 3.95205 10.5356 3.4645 10.5046 3.43355 10.4734 3.40316 10.4419 3.37322 10.3921 3.32586 10.3416 3.27981 10.2903 3.23495L9.49878 3.36562 8.87366 4.54128 9.53223 5.78866C9.42737 5.83913 9.32386 5.89184 9.22168 5.94668 9.10865 6.00741 8.9972 6.07079 8.88745 6.13671 8.81079 6.1827 8.73499 6.22997 8.66004 6.27843L8.02015 5.06634 5.41504 5.415 5.06641 8.0201 6.27845 8.65993C6.09778 8.9392 5.93396 9.23043 5.78858 9.53219L4.54114 8.87371 3.36585 9.49862 3.23511 10.2904C3.30835 10.374 3.38477 10.4558 3.46448 10.5355 3.95215 11.0231 4.51526 11.3889 5.11634 11.633 5.05848 11.9689 5.02161 12.312 5.00708 12.6608 4.29859 12.4119 3.62745 12.0261 3.03479 11.5033L3.02442 11.4941C2.98865 11.4625 2.95325 11.4303 2.9181 11.3976 2.8639 11.3472 2.81031 11.2955 2.75745 11.2427 1.78223 10.2675 1.21289 9.04018 1.04944 7.77053L1.0492 7.76913C0.906132 6.65584 1.07508 5.51021 1.55616 4.47356 1.84449 3.85213 2.24488 3.26992 2.75745 2.75738 3.28406 2.23076 3.88416 1.82256 4.52478 1.53264 5.54786 1.0696 6.67432 0.908468 7.76941 1.04922 7.81836 1.0555 7.86719 1.0624 7.9159 1.06991 7.95435 1.0758 7.9928 1.08208 8.03125 1.08874 9.2074 1.29284 10.3344 1.84908 11.2427 2.75738 11.2588 2.77346 11.2748 2.78963 11.2907 2.8059L11.3252 2.84142 11.3591 2.87688C11.38 2.89898 11.4006 2.92119 11.4211 2.94347L11.4431 2.96755C11.4634 2.98983 11.4834 3.0122 11.5032 3.03466ZM2.89637 8.61568L4.06067 7.99663 4.44165 5.14879 3.54798 4.25503 2.75147 4.36162C2.01502 5.54519 1.81983 6.96975 2.16602 8.28097L2.89637 8.61568ZM4.3617 2.75146L4.25513 3.54793 5.14881 4.44167 7.99683 4.06054 8.61585 2.89617 8.28125 2.16604C6.96997 1.81975 5.54529 2.01494 4.3617 2.75146ZM8 15C11.866 15 15 11.866 15 8 15 7.59053 14.9648 7.18927 14.8974 6.79907 14.8357 6.44251 14.5575 6.16427 14.2009 6.10262 13.8107 6.03516 13.4095 6 13 6 9.13401 6 6 9.13401 6 13 6 13.4095 6.03516 13.8107 6.10262 14.2009 6.16427 14.5575 6.44251 14.8357 6.79907 14.8974 7.18927 14.9648 7.59053 15 8 15ZM10.6516 8.53032C10.8469 8.33507 11.1635 8.33507 11.3588 8.53032L12.4194 9.59099C12.6146 9.78624 12.6146 10.1028 12.4194 10.2981 12.2241 10.4934 11.9076 10.4934 11.7123 10.2981L10.6516 9.23744C10.4564 9.04216 10.4564 8.7256 10.6516 8.53032ZM9.59094 9.59099C9.78625 9.39574 10.1028 9.39574 10.2981 9.59099L11.3588 10.6517C11.554 10.8469 11.554 11.1635 11.3588 11.3587 11.1635 11.554 10.8469 11.554 10.6516 11.3587L9.59094 10.2981C9.39575 10.1028 9.39575 9.78624 9.59094 9.59099ZM8.53027 11.3587C8.33508 11.1635 8.33508 10.8469 8.53027 10.6517 8.72559 10.4564 9.04211 10.4564 9.23743 10.6517L10.2981 11.7123C10.4933 11.9076 10.4933 12.2242 10.2981 12.4194 10.1028 12.6147 9.78625 12.6147 9.59094 12.4194L8.53027 11.3587Z"></path></svg>