<svg viewBox="0 0 16 16" width="16" height="16"><path d="M12.661 5.00706C12.4122 4.29847 12.0264 3.6273 11.5032 3.03465 11.4834 3.01219 11.4634 2.98982 11.4431 2.96754L11.4211 2.94346C11.4006 2.92118 11.38 2.89897 11.3591 2.87687L11.3252 2.84141 11.2907 2.80589C11.2748 2.78962 11.2588 2.77345 11.2427 2.75736 10.3344 1.84907 9.2074 1.29283 8.03125 1.08872 7.9928 1.08207 7.95435 1.07578 7.9159 1.0699 7.86719 1.06239 7.81836 1.05549 7.76941 1.0492 6.67432 0.908457 5.54786 1.06959 4.52478 1.53263 3.88416 1.82255 3.28406 2.23075 2.75745 2.75736 2.24488 3.26991 1.84449 3.85212 1.55616 4.47355 1.07508 5.5102 0.906132 6.65583 1.0492 7.76911L1.04944 7.77052C1.21289 9.04017 1.78223 10.2675 2.75745 11.2427 2.81031 11.2955 2.8639 11.3472 2.9181 11.3976 2.95325 11.4303 2.98865 11.4624 3.02442 11.4941L3.03479 11.5032C3.62745 12.0261 4.29859 12.4119 5.00708 12.6608 5.02161 12.312 5.05848 11.9689 5.11634 11.633 4.51526 11.3889 3.95215 11.0231 3.46448 10.5355 3.38477 10.4558 3.30835 10.374 3.23511 10.2904L3.36585 9.49861 4.54114 8.8737 5.78858 9.53218C5.93396 9.23042 6.09778 8.93919 6.27845 8.65992L5.06641 8.02009 5.41504 5.41499 8.02015 5.06632 8.66004 6.27842C8.73499 6.22996 8.8108 6.18269 8.88746 6.1367 8.9972 6.07078 9.10865 6.0074 9.22168 5.94667 9.32386 5.89183 9.42737 5.83912 9.53223 5.78865L8.87366 4.54127 9.49878 3.36561 10.2903 3.23493C10.3416 3.27979 10.3921 3.32585 10.4419 3.37321 10.4734 3.40315 10.5046 3.43354 10.5356 3.46449 11.0232 3.95204 11.389 4.51524 11.6331 5.11631 11.8456 5.07972 12.0609 5.05152 12.2788 5.03205 12.4054 5.02076 12.5328 5.0124 12.661 5.00706ZM2.16602 8.28095C1.81983 6.96974 2.01502 5.54518 2.75147 4.36161L3.54798 4.25501 4.44165 5.14878 4.06067 7.99662 2.89637 8.61567 2.16602 8.28095ZM8.28125 2.16603L8.61585 2.89616 7.99683 4.06053 5.14881 4.44166 4.25513 3.54792 4.3617 2.75144C5.54529 2.01493 6.96997 1.81974 8.28125 2.16603ZM10.6516 9.23744C10.4564 9.04215 10.4564 8.7256 10.6516 8.53031 10.8469 8.33506 11.1635 8.33506 11.3588 8.53031L12.4194 9.59098C12.6146 9.78623 12.6146 10.1028 12.4194 10.2981 12.2241 10.4934 11.9076 10.4934 11.7123 10.2981L10.6516 9.23744ZM9.59095 10.2981C9.39576 10.1028 9.39576 9.78623 9.59095 9.59098 9.78626 9.39573 10.1028 9.39573 10.2981 9.59098L11.3588 10.6517C11.554 10.8469 11.554 11.1635 11.3588 11.3587 11.1635 11.554 10.8469 11.554 10.6516 11.3587L9.59095 10.2981ZM8.53028 11.3587C8.33509 11.1635 8.33509 10.8469 8.53028 10.6517 8.72559 10.4564 9.04212 10.4564 9.23743 10.6517L10.2981 11.7123C10.4933 11.9076 10.4933 12.2242 10.2981 12.4194 10.1028 12.6147 9.78626 12.6147 9.59095 12.4194L8.53028 11.3587ZM15 8.00001C15 11.866 11.866 15 8 15 7.59058 15 7.18934 14.9649 6.79908 14.8974 6.44251 14.8358 6.16431 14.5575 6.10267 14.2009 6.03516 13.8107 6 13.4095 6 13 6 9.13401 9.13404 6.00001 13 6.00001 13.4094 6.00001 13.8107 6.03517 14.2009 6.10261 14.5575 6.16426 14.8357 6.44255 14.8973 6.79914 14.9648 7.18931 15 7.59056 15 8.00001ZM8 14C11.3137 14 14 11.3137 14 8.00001 14 7.68357 13.9756 7.37345 13.9287 7.0713 13.6266 7.02442 13.3164 7.00001 13 7.00001 9.68628 7.00001 7 9.68629 7 13 7 13.3164 7.02442 13.6266 7.07129 13.9287 7.37342 13.9756 7.6836 14 8 14Z"></path></svg>