<svg viewBox="0 0 16 16" width="16" height="16"><path d="M7.42435 2.38318C7.6532 1.90051 8.34003 1.90051 8.56888 2.38318L10.081 5.57242 13.4457 6.08846C13.9542 6.16645 14.1625 6.78608 13.8043 7.15539L11.3563 9.67969 11.9385 13.2418C12.0237 13.7635 11.4703 14.1539 11.0075 13.8985L7.99662 12.2375 4.98573 13.8985C4.52296 14.1539 3.9695 13.7635 4.05476 13.2418L4.63704 9.67929 2.19514 7.1548C1.83779 6.78535 2.04615 6.16655 2.55418 6.08848L5.91215 5.5725 7.42435 2.38318ZM7.99662 3.51036L6.73238 6.17671C6.64235 6.36658 6.464 6.49944 6.2563 6.53136L3.40689 6.96919 5.48382 9.11639C5.62296 9.26023 5.68592 9.46137 5.65364 9.65887L5.16338 12.6585 7.69068 11.2642C7.88111 11.1591 8.11212 11.1591 8.30255 11.2642L10.8299 12.6585 10.3396 9.65898C10.3073 9.46119 10.3705 9.25977 10.51 9.1159L12.5919 6.9692 9.7371 6.53136C9.52933 6.49949 9.3509 6.36662 9.26085 6.17668L7.99662 3.51036Z"></path></svg>