<svg width="16" height="16" viewBox="0 0 16 16" fill="none" xmlns="http://www.w3.org/2000/svg">
<mask id="path-1-inside-1_14_168" fill="white">
<path fill-rule="evenodd" clip-rule="evenodd" d="M1.62136 1.99081C1.29054 1.99081 1.02213 2.25859 1.02136 2.58941L1.00073 11.3894C0.999956 11.7213 1.26881 11.9908 1.60073 11.9908H10.8272C10.9397 11.9908 11.0499 12.0224 11.1452 12.082L14.0813 13.917C14.4809 14.1668 14.9993 13.8795 14.9993 13.4082L14.9989 2.59079C14.9989 2.25943 14.7303 1.99081 14.3989 1.99081H1.62136ZM7.98271 6.49081C7.70657 6.49081 7.48271 6.71466 7.48271 6.99081C7.48271 7.26695 7.70657 7.49081 7.98271 7.49081H11.9112C12.1873 7.49081 12.4112 7.26695 12.4112 6.99081C12.4112 6.71466 12.1873 6.49081 11.9112 6.49081H7.98271ZM3.55498 9.13387C3.55498 8.85773 3.77884 8.63387 4.05498 8.63387H8.63819C8.91433 8.63387 9.13819 8.85773 9.13819 9.13387C9.13819 9.41002 8.91433 9.63387 8.63819 9.63387H4.05498C3.77884 9.63387 3.55498 9.41002 3.55498 9.13387ZM10.6028 8.63387C10.3267 8.63387 10.1028 8.85773 10.1028 9.13387C10.1028 9.41002 10.3267 9.63387 10.6028 9.63387H11.9123C12.1885 9.63387 12.4123 9.41002 12.4123 9.13387C12.4123 8.85773 12.1885 8.63387 11.9123 8.63387H10.6028ZM3.55498 6.99081C3.55498 6.71466 3.77884 6.49081 4.05498 6.49081H6.01921C6.29535 6.49081 6.51921 6.71466 6.51921 6.99081C6.51921 7.26695 6.29535 7.49081 6.01921 7.49081H4.05498C3.77884 7.49081 3.55498 7.26695 3.55498 6.99081Z"/>
</mask>
<path fill-rule="evenodd" clip-rule="evenodd" d="M1.62136 1.99081C1.29054 1.99081 1.02213 2.25859 1.02136 2.58941L1.00073 11.3894C0.999956 11.7213 1.26881 11.9908 1.60073 11.9908H10.8272C10.9397 11.9908 11.0499 12.0224 11.1452 12.082L14.0813 13.917C14.4809 14.1668 14.9993 13.8795 14.9993 13.4082L14.9989 2.59079C14.9989 2.25943 14.7303 1.99081 14.3989 1.99081H1.62136ZM7.98271 6.49081C7.70657 6.49081 7.48271 6.71466 7.48271 6.99081C7.48271 7.26695 7.70657 7.49081 7.98271 7.49081H11.9112C12.1873 7.49081 12.4112 7.26695 12.4112 6.99081C12.4112 6.71466 12.1873 6.49081 11.9112 6.49081H7.98271ZM3.55498 9.13387C3.55498 8.85773 3.77884 8.63387 4.05498 8.63387H8.63819C8.91433 8.63387 9.13819 8.85773 9.13819 9.13387C9.13819 9.41002 8.91433 9.63387 8.63819 9.63387H4.05498C3.77884 9.63387 3.55498 9.41002 3.55498 9.13387ZM10.6028 8.63387C10.3267 8.63387 10.1028 8.85773 10.1028 9.13387C10.1028 9.41002 10.3267 9.63387 10.6028 9.63387H11.9123C12.1885 9.63387 12.4123 9.41002 12.4123 9.13387C12.4123 8.85773 12.1885 8.63387 11.9123 8.63387H10.6028ZM3.55498 6.99081C3.55498 6.71466 3.77884 6.49081 4.05498 6.49081H6.01921C6.29535 6.49081 6.51921 6.71466 6.51921 6.99081C6.51921 7.26695 6.29535 7.49081 6.01921 7.49081H4.05498C3.77884 7.49081 3.55498 7.26695 3.55498 6.99081Z" fill="white"/>
<path d="M1.02136 2.58941L2.02136 2.59175V2.59175L1.02136 2.58941ZM1.00073 11.3894L0.000735164 11.3871V11.3871L1.00073 11.3894ZM11.1452 12.082L11.6752 11.234L11.6752 11.234L11.1452 12.082ZM14.0813 13.917L14.6113 13.069L14.6113 13.069L14.0813 13.917ZM14.9993 13.4082L13.9993 13.4083L14.9993 13.4082ZM14.9989 2.59079L15.9989 2.59076V2.59076L14.9989 2.59079ZM2.02136 2.59175C2.02084 2.8123 1.84191 2.99081 1.62136 2.99081V0.990814C0.739166 0.990814 0.0234295 1.70488 0.0213619 2.58706L2.02136 2.59175ZM2.00073 11.3918L2.02136 2.59175L0.0213619 2.58706L0.000735164 11.3871L2.00073 11.3918ZM1.60073 10.9908C1.82201 10.9908 2.00125 11.1705 2.00073 11.3917L0.000735164 11.3871C-0.00133479 12.2722 0.715611 12.9908 1.60073 12.9908V10.9908ZM10.8272 10.9908H1.60073V12.9908H10.8272V10.9908ZM11.6752 11.234C11.421 11.0751 11.1271 10.9908 10.8272 10.9908V12.9908C10.7523 12.9908 10.6788 12.9697 10.6152 12.93L11.6752 11.234ZM14.6113 13.069L11.6752 11.234L10.6152 12.93L13.5513 14.765L14.6113 13.069ZM13.9993 13.4083C13.9993 13.0941 14.3449 12.9025 14.6113 13.069L13.5513 14.765C14.617 15.4311 15.9993 14.6649 15.9993 13.4082L13.9993 13.4083ZM13.9989 2.59083L13.9993 13.4083L15.9993 13.4082L15.9989 2.59076L13.9989 2.59083ZM14.3989 2.99081C14.178 2.99081 13.9989 2.81174 13.9989 2.59083L15.9989 2.59076C15.9989 1.70712 15.2825 0.990814 14.3989 0.990814V2.99081ZM1.62136 2.99081H14.3989V0.990814H1.62136V2.99081ZM8.48271 6.99081C8.48271 7.26695 8.25886 7.49081 7.98271 7.49081V5.49081C7.15429 5.49081 6.48271 6.16238 6.48271 6.99081H8.48271ZM7.98271 6.49081C8.25886 6.49081 8.48271 6.71466 8.48271 6.99081H6.48271C6.48271 7.81923 7.15429 8.49081 7.98271 8.49081V6.49081ZM11.9112 6.49081H7.98271V8.49081H11.9112V6.49081ZM11.4112 6.99081C11.4112 6.71467 11.635 6.49081 11.9112 6.49081V8.49081C12.7396 8.49081 13.4112 7.81923 13.4112 6.99081H11.4112ZM11.9112 7.49081C11.635 7.49081 11.4112 7.26695 11.4112 6.99081H13.4112C13.4112 6.16238 12.7396 5.49081 11.9112 5.49081V7.49081ZM7.98271 7.49081H11.9112V5.49081H7.98271V7.49081ZM4.05498 7.63387C3.22655 7.63387 2.55498 8.30545 2.55498 9.13387H4.55498C4.55498 9.41002 4.33112 9.63387 4.05498 9.63387V7.63387ZM8.63819 7.63387H4.05498V9.63387H8.63819V7.63387ZM10.1382 9.13387C10.1382 8.30545 9.46662 7.63387 8.63819 7.63387V9.63387C8.36205 9.63387 8.13819 9.41002 8.13819 9.13387H10.1382ZM8.63819 10.6339C9.46662 10.6339 10.1382 9.9623 10.1382 9.13387H8.13819C8.13819 8.85773 8.36205 8.63387 8.63819 8.63387V10.6339ZM4.05498 10.6339H8.63819V8.63387H4.05498V10.6339ZM2.55498 9.13387C2.55498 9.9623 3.22655 10.6339 4.05498 10.6339V8.63387C4.33112 8.63387 4.55498 8.85773 4.55498 9.13387H2.55498ZM11.1028 9.13387C11.1028 9.41002 10.879 9.63387 10.6028 9.63387V7.63387C9.7744 7.63387 9.10283 8.30545 9.10283 9.13387H11.1028ZM10.6028 8.63387C10.879 8.63387 11.1028 8.85773 11.1028 9.13387H9.10283C9.10283 9.9623 9.7744 10.6339 10.6028 10.6339V8.63387ZM11.9123 8.63387H10.6028V10.6339H11.9123V8.63387ZM11.4123 9.13387C11.4123 8.85773 11.6362 8.63387 11.9123 8.63387V10.6339C12.7407 10.6339 13.4123 9.9623 13.4123 9.13387H11.4123ZM11.9123 9.63387C11.6362 9.63387 11.4123 9.41002 11.4123 9.13387H13.4123C13.4123 8.30545 12.7407 7.63387 11.9123 7.63387V9.63387ZM10.6028 9.63387H11.9123V7.63387H10.6028V9.63387ZM4.05498 5.49081C3.22655 5.49081 2.55498 6.16238 2.55498 6.99081H4.55498C4.55498 7.26695 4.33112 7.49081 4.05498 7.49081V5.49081ZM6.01921 5.49081H4.05498V7.49081H6.01921V5.49081ZM7.51921 6.99081C7.51921 6.16238 6.84764 5.49081 6.01921 5.49081V7.49081C5.74307 7.49081 5.51921 7.26695 5.51921 6.99081H7.51921ZM6.01921 8.49081C6.84764 8.49081 7.51921 7.81923 7.51921 6.99081H5.51921C5.51921 6.71466 5.74307 6.49081 6.01921 6.49081V8.49081ZM4.05498 8.49081H6.01921V6.49081H4.05498V8.49081ZM2.55498 6.99081C2.55498 7.81923 3.22655 8.49081 4.05498 8.49081V6.49081C4.33112 6.49081 4.55498 6.71466 4.55498 6.99081H2.55498Z" fill="white" mask="url(#path-1-inside-1_14_168)"/>
</svg>
