<svg viewBox="0 0 16 16" width="16" height="16"><path d="M7.98305 6.491C7.70705 6.491 7.48305 6.715 7.48305 6.991 7.48305 7.267 7.70705 7.491 7.98305 7.491H11.9111C12.1871 7.491 12.4111 7.267 12.4111 6.991 12.4111 6.715 12.1871 6.491 11.9111 6.491H7.98305ZM3.55505 9.134C3.55505 8.858 3.77905 8.634 4.05505 8.634H8.63805C8.91405 8.634 9.13805 8.858 9.13805 9.134 9.13805 9.41 8.91405 9.634 8.63805 9.634H4.05505C3.77905 9.634 3.55505 9.41 3.55505 9.134ZM10.1031 9.134C10.1031 8.858 10.3271 8.634 10.6031 8.634H11.9121C12.1891 8.634 12.4121 8.858 12.4121 9.134 12.4121 9.41 12.1891 9.634 11.9121 9.634H10.6031C10.3271 9.634 10.1031 9.41 10.1031 9.134ZM3.55505 6.991C3.55505 6.715 3.77905 6.491 4.05505 6.491H6.01905C6.29505 6.491 6.51905 6.715 6.51905 6.991 6.51905 7.267 6.29505 7.491 6.01905 7.491H4.05505C3.77905 7.491 3.55505 7.267 3.55505 6.991ZM1.02136 2.58941C1.02213 2.25859 1.29054 1.99081 1.62136 1.99081H14.3989C14.7303 1.99081 14.9989 2.25943 14.9989 2.59079L14.9993 13.4082C14.9993 13.8795 14.4809 14.1668 14.0813 13.917L11.1452 12.082C11.0499 12.0224 10.9397 11.9908 10.8272 11.9908H1.60073C1.26881 11.9908 0.99996 11.7213 1.00073 11.3894L1.02136 2.58941ZM13.9989 2.99081H2.02042L2.00167 10.9908H10.8272C11.1271 10.9908 11.421 11.0751 11.6752 11.234L13.9993 12.6865 13.9989 2.99081Z"></path></svg>