<svg width="16" height="16" viewBox="0 0 16 16" fill="none" xmlns="http://www.w3.org/2000/svg">
<path fill-rule="evenodd" clip-rule="evenodd" d="M1.62098 1.99091C1.46185 1.99091 1.30923 2.05412 1.19671 2.16664C1.08419 2.27916 1.02098 2.43178 1.02098 2.59091L1.00098 11.3909C1.00098 11.55 1.06419 11.7026 1.17671 11.8152C1.28923 11.9277 1.44185 11.9909 1.60098 11.9909H10.827C10.9395 11.9911 11.0497 12.023 11.145 12.0829L14.081 13.9179C14.1718 13.9747 14.2762 14.0061 14.3833 14.0089C14.4904 14.0117 14.5962 13.9858 14.6899 13.9338C14.7836 13.8819 14.8617 13.8058 14.916 13.7135C14.9704 13.6212 14.999 13.516 14.999 13.4089V2.59191C14.999 2.43278 14.9358 2.28016 14.8232 2.16764C14.7107 2.05512 14.5581 1.99191 14.399 1.99191H1.61998L1.62098 1.99091ZM7.98298 6.49091C7.85037 6.49091 7.72319 6.54358 7.62942 6.63735C7.53566 6.73112 7.48298 6.8583 7.48298 6.99091C7.48298 7.12351 7.53566 7.25069 7.62942 7.34446C7.72319 7.43823 7.85037 7.49091 7.98298 7.49091H11.911C12.0436 7.49091 12.1708 7.43823 12.2645 7.34446C12.3583 7.25069 12.411 7.12351 12.411 6.99091C12.411 6.8583 12.3583 6.73112 12.2645 6.63735C12.1708 6.54358 12.0436 6.49091 11.911 6.49091H7.98298ZM3.55498 9.13591C3.55498 9.0033 3.60766 8.87612 3.70142 8.78235C3.79519 8.68858 3.92237 8.63591 4.05498 8.63591H8.63798C8.77059 8.63591 8.89776 8.68858 8.99153 8.78235C9.0853 8.87612 9.13798 9.0033 9.13798 9.13591C9.13798 9.26851 9.0853 9.39569 8.99153 9.48946C8.89776 9.58323 8.77059 9.63591 8.63798 9.63591H4.05498C3.92237 9.63591 3.79519 9.58323 3.70142 9.48946C3.60766 9.39569 3.55498 9.26851 3.55498 9.13591ZM10.603 8.63591C10.4704 8.63591 10.3432 8.68858 10.2494 8.78235C10.1557 8.87612 10.103 9.0033 10.103 9.13591C10.103 9.26851 10.1557 9.39569 10.2494 9.48946C10.3432 9.58323 10.4704 9.63591 10.603 9.63591H11.913C12.0456 9.63591 12.1728 9.58323 12.2665 9.48946C12.3603 9.39569 12.413 9.26851 12.413 9.13591C12.413 9.0033 12.3603 8.87612 12.2665 8.78235C12.1728 8.68858 12.0456 8.63591 11.913 8.63591H10.603ZM3.55498 6.99091C3.55498 6.8583 3.60766 6.73112 3.70142 6.63735C3.79519 6.54358 3.92237 6.49091 4.05498 6.49091H6.01898C6.15159 6.49091 6.27876 6.54358 6.37253 6.63735C6.4663 6.73112 6.51898 6.8583 6.51898 6.99091C6.51898 7.12351 6.4663 7.25069 6.37253 7.34446C6.27876 7.43823 6.15159 7.49091 6.01898 7.49091H4.05498C3.92237 7.49091 3.79519 7.43823 3.70142 7.34446C3.60766 7.25069 3.55498 7.12351 3.55498 6.99091Z" fill="white"/>
</svg>
