<svg viewBox="0 0 16 16" width="16" height="16"><path d="M1.70404 4.90604C1.62244 4.60149 1.80317 4.28844 2.10773 4.20684L12.5959 1.39653C12.9005 1.31492 13.2135 1.49566 13.2952 1.80022L13.9055 4.07806C13.9871 4.38262 13.8064 4.69566 13.5018 4.77727L6.6133 6.62304H13.7447C14.06 6.62304 14.3156 6.87864 14.3156 7.19394V14.0522C14.3156 14.3675 14.06 14.6231 13.7447 14.6231H2.88648C2.57118 14.6231 2.31558 14.3675 2.31558 14.0522V7.19394L2.3156 7.18835 2.31439 7.18389 1.70404 4.90604ZM3.1686 6.51172L5.14376 5.98248 5.78149 4.25678 2.7799 5.06105 3.1686 6.51172ZM6.20882 5.6971L8.84888 4.9897 9.48661 3.26399 6.84655 3.97139 6.20882 5.6971ZM9.91394 4.70432L12.8296 3.92305 12.4409 2.47238 10.5517 2.97861 9.91394 4.70432ZM9.90092 10.6893C9.95379 10.6587 9.95379 10.5874 9.90092 10.5568L7.44466 9.13504C7.38847 9.10251 7.31558 9.13993 7.31558 9.2013V12.0448C7.31558 12.1062 7.38847 12.1436 7.44466 12.1111L9.90092 10.6893Z"></path></svg>