<svg viewBox="0 0 16 16" width="16" height="16"><path d="M6.68462 1.50001L4.37238 1.50001C4.09624 1.50001 3.87238 1.72387 3.87238 2.00001 3.87238 2.27615 4.09624 2.50001 4.37238 2.50001L11.6302 2.50001C11.9063 2.50001 12.1302 2.27615 12.1302 2.00001 12.1302 1.72387 11.9063 1.50001 11.6302 1.50001L9.30933 1.50001C9.2354 1.21247 8.97465 1 8.66432 1L7.32962 1C7.0193 1 6.75854 1.21247 6.68462 1.50001ZM3.09371 3.83836C3.3669 3.79806 3.62103 3.98684 3.66134 4.26003L5.07734 13.8577C5.0894 13.9394 5.15956 14 5.24222 14H10.7578C10.8405 14 10.9107 13.9394 10.9227 13.8577L12.3387 4.26003C12.379 3.98684 12.6332 3.79806 12.9063 3.83836 13.1795 3.87867 13.3683 4.1328 13.328 4.40599L11.912 14.0036C11.8276 14.576 11.3364 15 10.7578 15H5.24222C4.66365 15 4.17249 14.576 4.08804 14.0036L2.67205 4.40599C2.63174 4.1328 2.82053 3.87867 3.09371 3.83836Z"></path></svg>