<svg viewBox="0 0 16 16" width="16" height="16"><path d="M1.87575 10.9495C1.40618 10.9495 1.02551 10.5688 1.02551 10.0992V5.90076C1.02551 5.43118 1.40618 5.05052 1.87575 5.05052L4.32238 5.05052 6.58887 3.21178C7.14462 2.76092 7.97477 3.15643 7.97477 3.87206V12.1279C7.97477 12.8436 7.14461 13.2391 6.58886 12.7882L4.32238 10.9495H1.87575ZM12.4419 3.40942C12.6358 3.21277 12.9524 3.21053 13.149 3.4044 14.2748 4.51431 14.9746 6.17284 14.9746 8.00657 14.9746 9.84029 14.2748 11.4988 13.149 12.6087 12.9524 12.8026 12.6358 12.8004 12.4419 12.6037 12.248 12.4071 12.2503 12.0905 12.4469 11.8966 13.3692 10.9874 13.9746 9.59136 13.9746 8.00657 13.9746 6.42178 13.3692 5.02573 12.4469 4.11651 12.2503 3.92264 12.248 3.60606 12.4419 3.40942ZM10.7055 5.23847C10.9315 5.07978 11.2433 5.13433 11.402 5.36032 11.8678 6.02362 12.1377 6.97903 12.1377 8.00661 12.1377 9.0342 11.8678 9.9896 11.402 10.6529 11.2433 10.8789 10.9315 10.9334 10.7055 10.7748 10.4795 10.6161 10.4249 10.3042 10.5836 10.0782 10.9055 9.61978 11.1377 8.8782 11.1377 8.00661 11.1377 7.13502 10.9055 6.39344 10.5836 5.935 10.4249 5.70901 10.4795 5.39716 10.7055 5.23847Z"></path></svg>