<svg viewBox="0 0 16 16" width="16" height="16"><path d="M1.02539 10.0992C1.02539 10.5688 1.40606 10.9494 1.87563 10.9494H4.32226L6.58874 12.7882C7.14449 13.2391 7.97465 12.8436 7.97465 12.1279L7.97465 3.87205C7.97465 3.15641 7.1445 2.7609 6.58874 3.21177L4.32226 5.0505H1.87563C1.40605 5.0505 1.02539 5.43117 1.02539 5.90074V10.0992ZM2.02539 9.94944L2.02539 6.0505 4.67688 6.0505 6.97465 4.18639 6.97465 11.8136 4.67689 9.94944H2.02539ZM12.442 3.40951C12.6359 3.21287 12.9525 3.21062 13.1491 3.40449 14.2749 4.51441 14.9747 6.17294 14.9747 8.00666 14.9747 9.84039 14.2749 11.4989 13.1491 12.6088 12.9525 12.8027 12.6359 12.8005 12.442 12.6038 12.2482 12.4072 12.2504 12.0906 12.4471 11.8967 13.3693 10.9875 13.9747 9.59145 13.9747 8.00666 13.9747 6.42187 13.3693 5.02583 12.4471 4.1166 12.2504 3.92273 12.2482 3.60616 12.442 3.40951ZM10.7052 5.23856C10.9312 5.07987 11.243 5.13443 11.4017 5.36042 11.8675 6.02372 12.1374 6.97912 12.1374 8.00671 12.1374 9.03429 11.8675 9.9897 11.4017 10.653 11.243 10.879 10.9312 10.9335 10.7052 10.7749 10.4792 10.6162 10.4247 10.3043 10.5834 10.0783 10.9053 9.61988 11.1374 8.8783 11.1374 8.00671 11.1374 7.13512 10.9053 6.39354 10.5834 5.93509 10.4247 5.7091 10.4792 5.39726 10.7052 5.23856Z"></path></svg>