<svg viewBox="0 0 16 16" width="16" height="16"><path d="M1 10.0992C1 10.5688 1.38067 10.9494 1.85024 10.9494H4.29686L6.56335 12.7882C7.11909 13.2391 7.94926 12.8436 7.94926 12.1279L7.94926 3.87205C7.94926 3.15641 7.11911 2.7609 6.56335 3.21177L4.29687 5.0505H1.85024C1.38066 5.0505 1 5.43117 1 5.90074V10.0992ZM2 9.94944L2 6.0505 4.65149 6.0505 6.94926 4.18639 6.94926 11.8136 4.65149 9.94944H2ZM11.3763 5.36042C11.2177 5.13443 10.9058 5.07987 10.6798 5.23856 10.4538 5.39726 10.3993 5.7091 10.558 5.93509 10.8799 6.39354 11.112 7.13512 11.112 8.00671 11.112 8.8783 10.8799 9.61988 10.558 10.0783 10.3993 10.3043 10.4538 10.6162 10.6798 10.7749 10.9058 10.9335 11.2177 10.879 11.3763 10.653 11.8421 9.9897 12.112 9.03429 12.112 8.00671 12.112 6.97912 11.8421 6.02372 11.3763 5.36042Z"></path></svg>