<svg width="16" height="16" viewBox="0 0 16 16" fill="none" xmlns="http://www.w3.org/2000/svg">
<path fill-rule="evenodd" clip-rule="evenodd" d="M1.01501 10.0992C1.01501 10.5688 1.39568 10.9495 1.86525 10.9495H4.31188L6.57836 12.7882C7.13411 13.2391 7.96427 12.8436 7.96427 12.1279V3.87206C7.96427 3.15643 7.13412 2.76092 6.57837 3.21178L4.31188 5.05052L1.86525 5.05052C1.39568 5.05052 1.01501 5.43118 1.01501 5.90076V10.0992ZM10.2862 5.72965C10.4814 5.53439 10.798 5.53439 10.9933 5.72965L12.5629 7.29926L14.1314 5.73068C14.3267 5.53542 14.6433 5.53542 14.8385 5.73068C15.0338 5.92594 15.0338 6.24252 14.8385 6.43779L13.27 8.00636L14.8379 9.57433C15.0332 9.76959 15.0332 10.0862 14.8379 10.2814C14.6427 10.4767 14.3261 10.4767 14.1308 10.2814L12.5629 8.71347L10.9939 10.2825C10.7986 10.4777 10.482 10.4777 10.2868 10.2825C10.0915 10.0872 10.0915 9.77062 10.2868 9.57536L11.8558 8.00636L10.2862 6.43676C10.0909 6.2415 10.0909 5.92491 10.2862 5.72965Z" fill="white"/>
</svg>
