<svg viewBox="0 0 16 16" width="16" height="16"><path d="M1.01501 10.0992C1.01501 10.5688 1.39568 10.9494 1.86525 10.9494H4.31188L6.57836 12.7882C7.13411 13.2391 7.96427 12.8436 7.96427 12.1279L7.96427 3.87205C7.96427 3.15641 7.13412 2.7609 6.57837 3.21177L4.31188 5.0505H1.86525C1.39568 5.0505 1.01501 5.43117 1.01501 5.90074V10.0992ZM2.01501 9.94944L2.01501 6.0505 4.66651 6.0505 6.96427 4.18639 6.96427 11.8136 4.66651 9.94944H2.01501ZM10.2861 5.72975C10.4813 5.53449 10.7979 5.53449 10.9932 5.72975L12.5628 7.29935 14.1314 5.73078C14.3266 5.53552 14.6432 5.53552 14.8385 5.73078 15.0337 5.92604 15.0337 6.24262 14.8385 6.43788L13.2699 8.00646 14.8379 9.57443C15.0331 9.76969 15.0331 10.0863 14.8379 10.2815 14.6426 10.4768 14.326 10.4768 14.1308 10.2815L12.5628 8.71357 10.9938 10.2826C10.7985 10.4778 10.482 10.4778 10.2867 10.2826 10.0914 10.0873 10.0914 9.77072 10.2867 9.57545L11.8557 8.00646 10.2861 6.43686C10.0908 6.24159 10.0908 5.92501 10.2861 5.72975Z"></path></svg>