<svg viewBox="0 0 16 16" width="16" height="16"><path d="M1.85024 10.9495C1.38067 10.9495 1 10.5688 1 10.0992V5.90076C1 5.43118 1.38066 5.05052 1.85024 5.05052L4.29687 5.05052 6.56335 3.21178C7.11911 2.76092 7.94926 3.15643 7.94926 3.87206V12.1279C7.94926 12.8436 7.11909 13.2391 6.56335 12.7882L4.29686 10.9495H1.85024ZM11.3765 5.36032C11.2178 5.13433 10.9059 5.07978 10.6799 5.23847 10.454 5.39716 10.3994 5.70901 10.5581 5.935 10.88 6.39344 11.1121 7.13502 11.1121 8.00661 11.1121 8.8782 10.88 9.61978 10.5581 10.0782 10.3994 10.3042 10.454 10.6161 10.6799 10.7748 10.9059 10.9334 11.2178 10.8789 11.3765 10.6529 11.8423 9.9896 12.1121 9.0342 12.1121 8.00661 12.1121 6.97903 11.8423 6.02362 11.3765 5.36032Z"></path></svg>