<svg width="16" height="16" viewBox="0 0 16 16" fill="none" xmlns="http://www.w3.org/2000/svg">
<path fill-rule="evenodd" clip-rule="evenodd" d="M1.87575 10.9494C1.40618 10.9494 1.02551 10.5688 1.02551 10.0992V5.90074C1.02551 5.43117 1.40618 5.0505 1.87575 5.0505L4.32238 5.0505L6.58887 3.21177C7.14462 2.7609 7.97477 3.15641 7.97477 3.87205V12.1279C7.97477 12.8436 7.14461 13.2391 6.58886 12.7882L4.32238 10.9494H1.87575ZM12.4419 3.4094C12.6358 3.21276 12.9524 3.21051 13.149 3.40438C14.2748 4.5143 14.9746 6.17283 14.9746 8.00655C14.9746 9.84027 14.2748 11.4988 13.149 12.6087C12.9524 12.8026 12.6358 12.8003 12.4419 12.6037C12.248 12.4071 12.2503 12.0905 12.4469 11.8966C13.3692 10.9874 13.9746 9.59134 13.9746 8.00655C13.9746 6.42176 13.3692 5.02572 12.4469 4.11649C12.2503 3.92262 12.248 3.60605 12.4419 3.4094ZM10.7055 5.23845C10.9315 5.07976 11.2433 5.13432 11.402 5.36031C11.8678 6.02361 12.1377 6.97901 12.1377 8.0066C12.1377 9.03418 11.8678 9.98958 11.402 10.6529C11.2433 10.8789 10.9315 10.9334 10.7055 10.7747C10.4795 10.616 10.4249 10.3042 10.5836 10.0782C10.9055 9.61977 11.1377 8.87818 11.1377 8.0066C11.1377 7.13501 10.9055 6.39342 10.5836 5.93498C10.4249 5.70899 10.4795 5.39714 10.7055 5.23845Z" fill="white"/>
</svg>
