<svg viewBox="0 0 16 16" width="16" height="16"><path d="M2.555 2.938c-.252-.054-.553.134-.553.393v.045a.505.505 0 0 0-.004.059v10.067a.5.5 0 0 0 1 0v-2.2c.858.224 2.284.313 4.337-.434a9.502 9.502 0 0 1 6.178-.112c.232.077.489-.094.489-.338v-7.56a.31.31 0 0 0-.195-.293c-.72-.28-3.355-1.126-6.472.007-2.283.83-3.79.664-4.603.42a.497.497 0 0 0-.177-.054Zm5.122.574a8.526 8.526 0 0 1 5.325-.166v6.228a10.53 10.53 0 0 0-6.009.355c-1.68.61-2.831.587-3.513.457a3.252 3.252 0 0 1-.478-.127V4.084c1.054.197 2.604.181 4.675-.572Z"/></svg>