<svg viewBox="0 0 16 16"><path d="M1.7143 1.42856C1.55651 1.42856 1.42859 1.55648 1.42859 1.71427V14.2857C1.42859 14.4435 1.55651 14.5714 1.7143 14.5714H14.2857C14.4435 14.5714 14.5714 14.4435 14.5714 14.2857V1.71427C14.5714 1.55648 14.4435 1.42856 14.2857 1.42856H1.7143ZM12.6297 5.54691C12.8528 5.32375 12.8528 4.96194 12.6297 4.73878 12.4065 4.51563 12.0447 4.51563 11.8216 4.73878L6.51133 10.049 4.26122 7.7989C4.03806 7.57574 3.67626 7.57574 3.4531 7.7989 3.22994 8.02205 3.22994 8.38386 3.4531 8.60702L6.10727 11.2612C6.21443 11.3684 6.35978 11.4286 6.51133 11.4286 6.66288 11.4286 6.80823 11.3684 6.91539 11.2612L12.6297 5.54691Z" fill-rule="evenodd" clip-rule="evenodd"/></svg>