<svg viewBox="0 0 16 16" width="16" height="16"><path d="M2 3a1 1 0 0 0-1 1v8a1 1 0 0 0 1 1h12a1 1 0 0 0 1-1V4a1 1 0 0 0-1-1H2Zm5.83 6.176c-.313.54-.859 1.066-1.847 1.066-1.267 0-2.275-.91-2.275-2.242 0-1.333 1.008-2.243 2.275-2.243.988 0 1.54.52 1.846 1.06l-.793.39a1.187 1.187 0 0 0-1.053-.63c-.754 0-1.326.604-1.326 1.423 0 .819.572 1.423 1.326 1.423.481 0 .871-.273 1.053-.63l.793.383Zm4.462 0c-.312.54-.858 1.066-1.846 1.066-1.268 0-2.275-.91-2.275-2.242 0-1.333 1.007-2.243 2.275-2.243.988 0 1.54.52 1.846 1.06l-.793.39a1.187 1.187 0 0 0-1.053-.63C9.692 6.576 9.12 7.18 9.12 8c0 .819.572 1.423 1.326 1.423.48 0 .87-.273 1.053-.63l.793.383Z"/></svg>