<svg viewBox="0 0 16 16" width="16" height="16"><path d="M10.77 12.5A5.474 5.474 0 0 0 13.135 8c0-3.038-2.492-5.5-5.567-5.5S2 4.962 2 8s2.493 5.5 5.568 5.5c.048 0 .096 0 .143-.002a.524.524 0 0 0 .042.002H13.5a.5.5 0 1 0 0-1h-2.73Zm.536-4.579c0 .695-.57 1.257-1.273 1.257a1.265 1.265 0 0 1-1.272-1.257c0-.694.57-1.257 1.272-1.257.703 0 1.273.563 1.273 1.257ZM8.76 10.436c0 .694-.57 1.257-1.273 1.257a1.265 1.265 0 0 1-1.272-1.257c0-.694.57-1.257 1.272-1.257.703 0 1.273.563 1.273 1.257Zm0-5.029c0 .694-.57 1.257-1.273 1.257a1.265 1.265 0 0 1-1.272-1.257c0-.694.57-1.257 1.272-1.257.703 0 1.273.563 1.273 1.257ZM6.215 7.921c0 .695-.57 1.257-1.272 1.257A1.265 1.265 0 0 1 3.67 7.921c0-.694.57-1.257 1.273-1.257s1.272.563 1.272 1.257Z"/></svg>