<svg viewBox="0 0 16 16"><path d="M10.7697 12.4999C12.2005 11.5045 13.1353 9.86011 13.1353 8 13.1353 4.96243 10.6425 2.5 7.56763 2.5 4.49271 2.5 2 4.96243 2 8 2 11.0376 4.49271 13.5 7.56763 13.5 7.61571 13.5 7.66364 13.4994 7.71143 13.4982 7.72519 13.4993 7.73911 13.4999 7.75317 13.4999H13.5C13.7761 13.4999 14 13.2761 14 12.9999 14 12.7238 13.7761 12.4999 13.5 12.4999H10.7697ZM10.0333 9.17834C10.7362 9.17834 11.3059 8.6155 11.3059 7.9212 11.3059 7.2269 10.7362 6.66406 10.0333 6.66406 9.3305 6.66406 8.76074 7.2269 8.76074 7.9212 8.76074 8.6155 9.3305 9.17834 10.0333 9.17834ZM6.21549 7.9212C6.21549 8.6155 5.64572 9.17834 4.94289 9.17834 4.24005 9.17834 3.67029 8.6155 3.67029 7.9212 3.67029 7.2269 4.24005 6.66406 4.94289 6.66406 5.64572 6.66406 6.21549 7.2269 6.21549 7.9212ZM7.48814 6.6641C8.19097 6.6641 8.76074 6.10126 8.76074 5.40696 8.76074 4.71266 8.19097 4.14982 7.48814 4.14982 6.7853 4.14982 6.21554 4.71266 6.21554 5.40696 6.21554 6.10126 6.7853 6.6641 7.48814 6.6641ZM8.76077 10.4359C8.76077 11.1302 8.19101 11.693 7.48818 11.693 6.78534 11.693 6.21558 11.1302 6.21558 10.4359 6.21558 9.74155 6.78534 9.17871 7.48818 9.17871 8.19101 9.17871 8.76077 9.74155 8.76077 10.4359Z" fill-rule="evenodd" clip-rule="evenodd"/></svg>