<svg viewBox="0 0 16 16" width="16" height="16"><path d="M3.528 4.491a.5.5 0 0 1 .498-.5h4.619a.5.5 0 0 1 0 1H4.026a.5.5 0 0 1-.498-.5Zm0 6.991a.5.5 0 0 1 .498-.5h4.619a.5.5 0 0 1 0 1H4.026a.5.5 0 0 1-.498-.5ZM4.01 6.32a.5.5 0 0 0 0 1h.985a.5.5 0 0 0 0-1H4.01Zm-.498 2.832a.5.5 0 0 1 .498-.5h.985a.5.5 0 0 1 0 1H4.01a.5.5 0 0 1-.498-.5Zm2.516-1.835c0-.552.446-1 .997-1h1.073c.55 0 .997.448.997 1V8.65c0 .552-.446 1-.997 1H7.025a.998.998 0 0 1-.997-1V7.316Zm.997 0V8.65h1.073V7.316H7.025ZM2 3c0-.552.446-1 .997-1h6.806c.55 0 .997.448.997 1v1.667h1.986c.67 0 1.214.545 1.214 1.217v6.01A2.103 2.103 0 0 1 11.926 14h-8.93A.998.998 0 0 1 2 13V3Zm8.114 10a2.1 2.1 0 0 1-.312-1.106V5.515l.001-.044V3H2.997v10h7.117Zm2.672-7.333H10.8v6.227c0 .61.493 1.106 1.102 1.106.609 0 1.102-.495 1.102-1.106v-6.01a.217.217 0 0 0-.216-.218Z"/></svg>