<svg viewBox="0 0 16 16" width="16" height="16"><path d="M13.278 2.727a2.37 2.37 0 0 0-1.38-.72 1.74 1.74 0 0 0-1.47.54l-.17.17a.46.46 0 0 0-.33.13l-1.15 1.16a.45.45 0 0 0-.13.28l-5.77 5.77a.48.48 0 0 0-.12.22l-.76 3.16a.48.48 0 0 0 .56.56l3.16-.75a.48.48 0 0 0 .28-.12l5.77-5.77a.45.45 0 0 0 .23-.13l1.13-1.13a.46.46 0 0 0 .13-.32l.17-.17a1.74 1.74 0 0 0 .57-1.5 2.31 2.31 0 0 0-.72-1.38Zm-10.2 10.2.39-1.63 1.24 1.24-1.63.39Zm2.54-.78-1.76-1.76 5.41-5.38 1.73 1.73-5.38 5.41Zm6.15-6-1.92-1.91.38-.38 1.92 1.92-.38.37Zm1.004-1.22-.104.09-1.67-1.71.1-.1a.84.84 0 0 1 .72-.27c.318.05.61.204.83.44.236.22.39.512.44.83a.84.84 0 0 1-.057.395.908.908 0 0 1-.26.324Z"/></svg>