<svg viewBox="0 0 16 16" width="16" height="16"><path d="M1.667 2.667A.667.667 0 0 0 1 3.333v9.334c0 .368.298.666.667.666h12.666a.667.667 0 0 0 .667-.666V3.333a.667.667 0 0 0-.667-.666H1.667ZM3.5 5.333a.5.5 0 0 1 .5-.5h4a.5.5 0 1 1 0 1H4a.5.5 0 0 1-.5-.5ZM3.5 8a.5.5 0 0 1 .5-.5h2.667a.5.5 0 1 1 0 1H4a.5.5 0 0 1-.5-.5Zm0 2.667a.5.5 0 0 1 .5-.5h1.333a.5.5 0 0 1 0 1H4a.5.5 0 0 1-.5-.5Zm3.333 0a.5.5 0 0 1 .5-.5H12a.5.5 0 0 1 0 1H7.333a.5.5 0 0 1-.5-.5ZM8.167 8a.5.5 0 0 1 .5-.5H12a.5.5 0 0 1 0 1H8.667a.5.5 0 0 1-.5-.5ZM9.5 5.333a.5.5 0 0 1 .5-.5h2a.5.5 0 0 1 0 1h-2a.5.5 0 0 1-.5-.5Z"/></svg>