<svg viewBox="0 0 16 16" width="16" height="16"><path d="M3.5 5.333a.5.5 0 0 1 .5-.5h4a.5.5 0 0 1 0 1H4a.5.5 0 0 1-.5-.5ZM4 7.5a.5.5 0 0 0 0 1h2.667a.5.5 0 0 0 0-1H4Zm-.5 3.167a.5.5 0 0 1 .5-.5h1.333a.5.5 0 1 1 0 1H4a.5.5 0 0 1-.5-.5Zm3.833-.5a.5.5 0 1 0 0 1H12a.5.5 0 0 0 0-1H7.333ZM8.166 8a.5.5 0 0 1 .5-.5H12a.5.5 0 1 1 0 1H8.666a.5.5 0 0 1-.5-.5ZM10 4.833a.5.5 0 0 0 0 1h2a.5.5 0 0 0 0-1h-2ZM1.667 2.667A.667.667 0 0 0 1 3.333v9.334c0 .368.298.666.667.666h12.666a.667.667 0 0 0 .667-.666V3.333a.667.667 0 0 0-.667-.666H1.667Zm.333 1h12v8.666H2V3.667Z"/></svg>