<svg viewBox="0 0 16 16"><path d="M1.7038 4.906C1.62219 4.60145 1.80293 4.2884 2.10749 4.2068L12.5957 1.39649C12.9003 1.31488 13.2133 1.49562 13.2949 1.80018L13.9053 4.07802C13.9869 4.38258 13.8061 4.69562 13.5016 4.77723L6.61264 6.62311H13.7449C14.0602 6.62311 14.3158 6.87871 14.3158 7.19401V14.0522C14.3158 14.3675 14.0602 14.6231 13.7449 14.6231H2.8867C2.5714 14.6231 2.3158 14.3675 2.3158 14.0522V7.19401L2.31582 7.18996C2.31525 7.18793 2.31469 7.18589 2.31415 7.18385L1.7038 4.906ZM3.16836 6.51168L2.77965 5.06101 12.4407 2.47234 12.8294 3.92301 3.16836 6.51168ZM3.31488 13.624V7.62219H13.3167V13.624H3.31488ZM9.90041 10.6892C9.95328 10.6586 9.95328 10.5873 9.90041 10.5567L7.44415 9.13498C7.38795 9.10246 7.31506 9.13987 7.31506 9.20124L7.31506 12.0447C7.31506 12.1061 7.38795 12.1435 7.44415 12.111L9.90041 10.6892Z" fill-rule="" clip-rule=""/></svg>