<svg viewBox="0 0 36 36"><path d="M15.1327 13.749L15.4562 16.2064H31.4618V31.7064H5.96185L5.96185 16.3707V16.2061L5.9619 16.2063 7.16931 15.8828 11.1687 14.8112 11.7936 14.6437 14.1265 14.0186 15.1327 13.749ZM23.1167 22.5708L22.4905 23.6527 23.1167 22.5708 17.1515 19.118C16.3246 18.6394 14.9618 19.0884 14.9618 20.3608L14.9618 27.2664C14.9618 28.5388 16.3246 28.9878 17.1515 28.5091L23.1167 25.0563C24.0769 24.5006 24.0769 23.1266 23.1167 22.5708ZM15.8991 26.3455C15.8995 26.3452 15.8999 26.345 15.9003 26.3448L15.8991 26.3455 16.2118 26.8857 15.8991 26.3455Z" fill-rule="" clip-rule=""/></svg>