<svg viewBox="0 0 56 56"><path d="M34.5833 37.0067C34.7897 37.1262 34.7897 37.4047 34.5833 37.5242L24.9921 43.0758C24.7727 43.2028 24.488 43.0567 24.488 42.8171L24.488 31.7139C24.488 31.4742 24.7727 31.3281 24.9921 31.4552L34.5833 37.0067ZM6.43559 15.3372C5.41092 15.6118 4.80284 16.665 5.0774 17.6897L6.93015 24.6042C6.94995 24.6781 6.9738 24.7499 7.00139 24.8192 6.99286 24.8927 6.98847 24.9675 6.98847 25.0432V49.2017C6.98847 50.2625 7.84843 51.1225 8.90924 51.1225H49.0677C50.1285 51.1225 50.9885 50.2625 50.9885 49.2017V25.0432C50.9885 23.9824 50.1285 23.1224 49.0677 23.1224H19.8815L48.0727 15.5686C49.0974 15.2941 49.7054 14.2409 49.4309 13.2162L47.5781 6.30165C47.3036 5.27698 46.2503 4.6689 45.2257 4.94346L6.43559 15.3372ZM8.2545 17.9557L9.5486 22.7853 46.2538 12.9502 44.9597 8.12056 8.2545 17.9557ZM9.98847 26.1224V48.1225H47.9885V26.1224H9.98847Z" fill-rule="evenodd" clip-rule="evenodd"/></svg>