<svg viewBox="0 0 16 16" width="16" height="16"><path d="M11.503 3.035a5.958 5.958 0 0 1 1.158 1.972 8.095 8.095 0 0 0-1.028.11 4.984 4.984 0 0 0-1.343-1.882l-.791.13-.625 1.176.658 1.248a7.92 7.92 0 0 0-.872.49l-.64-1.213-2.605.349-.349 2.605 1.212.64c-.18.28-.344.57-.49.872l-1.247-.658-1.175.625-.13.791a4.985 4.985 0 0 0 1.881 1.343 8.02 8.02 0 0 0-.11 1.028 5.967 5.967 0 0 1-1.972-1.158l-.01-.009a5.582 5.582 0 0 1-.268-.251A5.974 5.974 0 0 1 1.05 7.77v-.002a5.988 5.988 0 0 1 1.708-5.012A5.987 5.987 0 0 1 8.031 1.09a5.972 5.972 0 0 1 3.26 1.717l.034.035.034.036.062.066.022.025.06.067Zm-8.607 5.58 1.165-.618.38-2.848-.893-.894-.797.107a5.008 5.008 0 0 0-.585 3.919l.73.335Zm1.466-5.864-.107.797.894.894 2.848-.381.619-1.165-.335-.73a5.008 5.008 0 0 0-3.92.585ZM8 15a7 7 0 0 0 6.897-8.2.854.854 0 0 0-.696-.697A7 7 0 0 0 6.103 14.2c.061.356.34.635.696.696.39.068.792.103 1.201.103Zm2.652-6.47a.5.5 0 0 1 .707 0l1.06 1.061a.5.5 0 0 1-.707.707l-1.06-1.06a.5.5 0 0 1 0-.708ZM9.59 9.591a.5.5 0 0 1 .707 0l1.06 1.06a.5.5 0 1 1-.706.708l-1.061-1.06a.5.5 0 0 1 0-.708Zm-1.06 1.768a.5.5 0 0 1 .706-.707l1.061 1.06a.5.5 0 0 1-.707.707l-1.06-1.06Z"/></svg>