<svg viewBox="0 0 16 16" width="16" height="16"><path d="M12.661 5.007a5.958 5.958 0 0 0-1.218-2.04l-.022-.024a6.643 6.643 0 0 0-.062-.066l-.034-.036-.034-.035A5.972 5.972 0 0 0 7.77 1.049a5.987 5.987 0 0 0-5.012 1.708A5.988 5.988 0 0 0 1.048 7.77v.002a5.974 5.974 0 0 0 1.975 3.723l.01.01a5.965 5.965 0 0 0 1.973 1.157 8.02 8.02 0 0 1 .11-1.028 4.985 4.985 0 0 1-1.882-1.343l.13-.791 1.176-.625 1.248.658c.145-.302.309-.593.49-.872l-1.213-.64.349-2.605 2.605-.349.64 1.212a7.977 7.977 0 0 1 .872-.49l-.658-1.247.625-1.175.791-.131a4.911 4.911 0 0 1 .246.23c.487.487.853 1.05 1.097 1.651a8 8 0 0 1 1.028-.109ZM2.166 8.281a5.008 5.008 0 0 1 .585-3.92l.797-.106.894.894-.381 2.848-1.165.619-.73-.335Zm6.115-6.115.335.73-.62 1.165-2.847.38-.894-.893.107-.797a5.008 5.008 0 0 1 3.92-.585Zm2.37 7.071a.5.5 0 0 1 .708-.707l1.06 1.061a.5.5 0 0 1-.707.707l-1.06-1.06Zm-1.06 1.061a.5.5 0 0 1 .707-.707l1.06 1.06a.5.5 0 1 1-.706.708l-1.061-1.06Zm-1.06 1.06a.5.5 0 0 1 .706-.706l1.061 1.06a.5.5 0 0 1-.707.707l-1.06-1.06ZM15 8a7 7 0 0 1-8.2 6.897.853.853 0 0 1-.697-.696A7 7 0 0 1 14.2 6.103c.356.061.635.34.696.696.068.39.103.792.103 1.201Zm-7 6a6 6 0 0 0 5.929-6.929 6 6 0 0 0-6.857 6.857c.301.048.612.072.928.072Z"/></svg>