<svg viewBox="0 0 16 16" width="16" height="16"><path d="M7.424 2.383a.633.633 0 0 1 1.145 0l1.512 3.19 3.365.515a.633.633 0 0 1 .358 1.067L11.356 9.68l.582 3.562a.633.633 0 0 1-.93.656l-3.011-1.66-3.011 1.66a.633.633 0 0 1-.931-.656l.582-3.563-2.442-2.524a.633.633 0 0 1 .36-1.067l3.357-.516 1.512-3.189Zm.573 1.127L6.732 6.177a.633.633 0 0 1-.476.354l-2.85.438 2.078 2.147c.139.144.202.345.17.543l-.49 3 2.527-1.395a.633.633 0 0 1 .612 0l2.527 1.395-.49-3a.634.634 0 0 1 .17-.543l2.082-2.147-2.855-.438a.633.633 0 0 1-.476-.354L7.997 3.51Z"/></svg>