<svg viewBox="0 0 16 16" width="16" height="16"><path d="M1.704 4.906a.57.57 0 0 1 .404-.7l10.488-2.81c.304-.081.617.1.7.404l.61 2.278a.57.57 0 0 1-.404.7L6.613 6.622h7.132a.57.57 0 0 1 .57.57v6.86a.57.57 0 0 1-.57.57H2.886a.57.57 0 0 1-.57-.57V7.187l-.002-.004-.61-2.278Zm1.465 1.606 1.975-.53.637-1.725-3.001.804.389 1.45Zm3.04-.815 2.64-.707.638-1.726-2.64.707-.638 1.726Zm3.705-.993 2.916-.78-.39-1.452-1.888.507-.638 1.725ZM9.9 10.69a.075.075 0 0 0 0-.132L7.445 9.135c-.057-.032-.13.005-.13.066v2.844c0 .061.073.099.13.066L9.9 10.69Z"/></svg>