<svg viewBox="0 0 16 16" width="16" height="16"><path d="M1.704 4.906a.57.57 0 0 1 .403-.7l10.489-2.81a.57.57 0 0 1 .699.404l.61 2.278a.571.571 0 0 1-.403.7l-6.89 1.845h7.133a.57.57 0 0 1 .57.571v6.858a.57.57 0 0 1-.57.571H2.887a.57.57 0 0 1-.571-.57V7.19a.424.424 0 0 1-.002-.006l-.61-2.278Zm1.464 1.606 9.661-2.589-.388-1.45L2.78 5.06l.388 1.45Zm.147 7.112h10.002V7.622H3.315v6.002ZM9.9 10.689a.075.075 0 0 0 0-.132L7.444 9.135c-.056-.033-.129.005-.129.066v2.844c0 .061.073.098.13.066L9.9 10.689Z"/></svg>