<svg viewBox="0 0 16 16" width="16" height="16"><path d="M1.025 10.1c0 .469.381.85.85.85h2.447l2.267 1.838a.85.85 0 0 0 1.386-.66V3.872a.85.85 0 0 0-1.386-.66L4.322 5.05H1.876a.85.85 0 0 0-.85.85v4.198Zm1-.15v-3.9h2.652l2.298-1.864v7.628L4.677 9.949H2.025Zm10.417-6.54a.5.5 0 0 1 .707-.006c1.126 1.11 1.826 2.769 1.826 4.603 0 1.833-.7 3.492-1.826 4.602a.5.5 0 1 1-.702-.712c.922-.91 1.528-2.306 1.528-3.89 0-1.585-.606-2.981-1.528-3.89a.5.5 0 0 1-.005-.707Zm-1.737 1.829a.5.5 0 0 1 .697.121c.466.664.735 1.62.735 2.647 0 1.027-.27 1.983-.735 2.646a.5.5 0 1 1-.819-.575c.322-.458.554-1.2.554-2.071 0-.872-.232-1.613-.554-2.072a.5.5 0 0 1 .122-.696Z"/></svg>