<svg viewBox="0 0 16 16"><path d="M1 2.57143C1 2.25584 1.25584 2 1.57143 2H14.4286C14.7442 2 15 2.25584 15 2.57143V11.4286C15 11.7442 14.7442 12 14.4286 12H1.57143C1.25584 12 1 11.7442 1 11.4286V2.57143ZM9.24248 4.64645C9.43774 4.84171 9.43774 5.1583 9.24248 5.35356L8.31825 6.27778H8.64755C9.1821 6.27778 9.4498 6.92408 9.07181 7.30205L7.46469 8.90912C7.26943 9.10438 6.95285 9.10437 6.75759 8.90911 6.56233 8.71384 6.56233 8.39726 6.7576 8.202L7.68184 7.27778H7.35257C6.81803 7.27778 6.55032 6.6315 6.9283 6.25352L8.53537 4.64645C8.73063 4.45119 9.04721 4.45119 9.24248 4.64645ZM4.71429 13C4.43815 13 4.21429 13.2239 4.21429 13.5 4.21429 13.7761 4.43815 14 4.71429 14H11.2844C11.5605 14 11.7844 13.7761 11.7844 13.5 11.7844 13.2239 11.5605 13 11.2844 13H4.71429Z" fill-rule="evenodd" clip-rule="evenodd"/></svg>