<svg viewBox="0 0 16 16"><path d="M2 3C2 2.44772 2.41328 2 2.92308 2H9.78758C10.2974 2 10.7107 2.44772 10.7107 3V4.6665H12.8763C13.4969 4.6665 14 5.21155 14 5.88389V11.7186C14 12.9785 13.0572 13.9998 11.8942 13.9998L11.6614 14H2.92308C2.41328 14 2 13.5523 2 13L2 3ZM10.7115 5.6665H12.8763C12.9871 5.6665 13.0769 5.76383 13.0769 5.88389V11.7186C13.0769 12.4262 12.5474 12.9998 11.8942 12.9998 11.241 12.9998 10.7115 12.4262 10.7115 11.7186V5.6665ZM3.99399 3.99121C3.71785 3.99121 3.49399 4.21507 3.49399 4.49121 3.49399 4.76735 3.71785 4.99121 3.99399 4.99121H8.6274C8.90355 4.99121 9.1274 4.76735 9.1274 4.49121 9.1274 4.21507 8.90355 3.99121 8.6274 3.99121H3.99399ZM3.49402 11.4824C3.49402 11.2063 3.71788 10.9824 3.99402 10.9824H8.62743C8.90357 10.9824 9.12743 11.2063 9.12743 11.4824 9.12743 11.7586 8.90357 11.9824 8.62743 11.9824H3.99402C3.71788 11.9824 3.49402 11.7586 3.49402 11.4824ZM3.97839 6.31931C3.70225 6.31931 3.47839 6.54317 3.47839 6.81931 3.47839 7.09545 3.70225 7.31931 3.97839 7.31931H4.9661C5.24225 7.31931 5.4661 7.09545 5.4661 6.81931 5.4661 6.54317 5.24225 6.31931 4.9661 6.31931H3.97839ZM3.47839 9.15137C3.47839 8.87522 3.70225 8.65137 3.97839 8.65137H4.9661C5.24225 8.65137 5.4661 8.87522 5.4661 9.15137 5.4661 9.42751 5.24225 9.65137 4.9661 9.65137H3.97839C3.70225 9.65137 3.47839 9.42751 3.47839 9.15137ZM7.00244 7.31647H8.07936V8.6498L7.00244 8.6498V7.31647ZM6.00244 7.31647C6.00244 6.76418 6.45016 6.31647 7.00244 6.31647H8.07936C8.63165 6.31647 9.07936 6.76418 9.07936 7.31647V8.6498C9.07936 9.20209 8.63165 9.6498 8.07936 9.6498H7.00244C6.45016 9.6498 6.00244 9.20209 6.00244 8.6498V7.31647Z" fill-rule="evenodd" clip-rule="evenodd"/></svg>