<svg viewBox="0 0 36 36"><path d="M22.4893 23.6528C22.6177 23.7271 22.6177 23.9003 22.4893 23.9746L16.5241 27.4274C16.3876 27.5064 16.2106 27.4155 16.2106 27.2665L16.2106 20.3609C16.2106 20.2118 16.3876 20.121 16.5241 20.2L22.4893 23.6528ZM4.21548 9.68625C3.54865 9.86492 3.15292 10.5503 3.3316 11.2172L4.7112 16.3659V31.7065C4.7112 32.3969 5.27084 32.9565 5.9612 32.9565H31.4612C32.1516 32.9565 32.7112 32.3969 32.7112 31.7065V16.2065C32.7112 15.5162 32.1516 14.9565 31.4612 14.9565H15.4561L30.9171 10.8138C31.584 10.6351 31.9797 9.94967 31.801 9.28284L30.3775 3.97024C30.1988 3.30341 29.5134 2.90768 28.8466 3.08636L4.21548 9.68625ZM6.06994 11.7775L6.84639 14.6753 29.0627 8.72248 28.2862 5.8247 6.06994 11.7775ZM7.2112 17.4565V30.4565H30.2112V17.4565H7.2112Z" fill-rule="evenodd" clip-rule="evenodd"/></svg>