<svg viewBox="0 0 56 56"><path d="M5.0774 17.6897C4.80284 16.665 5.41092 15.6118 6.43559 15.3372L45.2257 4.94347C46.2503 4.66891 47.3036 5.27699 47.5781 6.30166L49.4309 13.2162C49.7054 14.2409 49.0974 15.2941 48.0727 15.5687L19.8815 23.1225H49.0677C50.1285 23.1225 50.9885 23.9824 50.9885 25.0432V49.2017C50.9885 50.2625 50.1285 51.1225 49.0677 51.1225H8.90924C7.84843 51.1225 6.98847 50.2625 6.98847 49.2017V25.0432C6.98847 24.9675 6.99286 24.8927 7.00139 24.8192 6.9738 24.7499 6.94995 24.6781 6.93015 24.6042L5.0774 17.6897ZM9.5486 22.7853L8.2545 17.9557 15.4394 16.0305 13.2838 21.7845 9.5486 22.7853ZM16.8449 20.8303L24.3913 18.8082 26.5469 13.0543 19.0005 15.0763 16.8449 20.8303ZM30.108 12.1001L27.9524 17.854 35.5007 15.8315 37.6564 10.0775 30.108 12.1001ZM41.2175 9.1233L39.0618 14.8773 46.2538 12.9502 44.9597 8.12057 41.2175 9.1233ZM34.6071 37.0065C34.8136 37.126 34.8136 37.4045 34.6071 37.524L25.016 43.0756C24.7965 43.2026 24.5119 43.0565 24.5119 42.8169L24.5119 31.7137C24.5119 31.4741 24.7965 31.328 25.016 31.455L34.6071 37.0065Z" fill-rule="evenodd" clip-rule="evenodd"/></svg>