<svg viewBox="0 0 16 16"><path d="M8.28879 1.25269C8.16375 1.22848 8.03809 1.20828 7.91202 1.19207 6.81704 1.05133 5.69068 1.21245 4.66757 1.67544 4.02694 1.96534 3.42679 2.3736 2.90018 2.90022 2.38762 3.41278 1.98718 3.99501 1.69886 4.61642 1.69096 4.63345 1.68314 4.65052 1.67541 4.66761 1.21241 5.69073 1.05129 6.81711 1.19204 7.9121 1.3553 9.18217 1.92468 10.41 2.90018 11.3855 2.98256 11.4679 3.06673 11.5474 3.15258 11.6239 3.16086 11.6313 3.16916 11.6387 3.17747 11.646 3.7682 12.1672 4.43698 12.5523 5.14303 12.8013 5.14518 12.4985 5.16477 12.1999 5.20084 11.9064 4.58427 11.6554 4.00656 11.2797 3.50627 10.7794 3.45202 10.7252 3.39923 10.67 3.34791 10.614L3.52314 9.55285 4.67517 8.94031 5.8746 9.57345C5.99687 9.3139 6.13318 9.06228 6.28256 8.81956L5.22373 8.26064 5.58218 5.58222 8.26061 5.22376 8.81953 6.28259C9.06225 6.13321 9.31387 5.9969 9.57341 5.87463L8.94028 4.67521 9.55281 3.52321 10.614 3.34797C10.67 3.39928 10.7251 3.45206 10.7794 3.50631 11.2797 4.00659 11.6553 4.5843 11.9064 5.20087 12.1999 5.1648 12.4985 5.14521 12.8012 5.14306 12.5523 4.43702 12.1672 3.76825 11.646 3.17753 11.5626 3.08304 11.4758 2.99055 11.3855 2.90022 10.5068 2.02154 9.42338 1.47236 8.28879 1.25269ZM5.35402 4.74797L8.12823 4.37669 8.79599 3.12082 8.34754 2.14234C7.06711 1.83515 5.69172 2.02518 4.52879 2.71244L4.38593 3.77988 5.35402 4.74797ZM3.77984 4.38597L4.74793 5.35406 4.37666 8.12826 3.12073 8.79605 2.14232 8.34763C1.83511 7.06719 2.02514 5.69177 2.7124 4.52882L3.77984 4.38597ZM7.99997 14.8571C11.7871 14.8571 14.8571 11.7871 14.8571 8 14.8571 7.56065 14.8158 7.13095 14.7368 6.71458 14.6796 6.41281 14.4443 6.17751 14.1425 6.12028 13.7262 6.04132 13.2965 6 12.8571 6 9.07001 6 5.99997 9.07005 5.99997 12.8571 5.99997 13.2965 6.04128 13.7262 6.12025 14.1426 6.17748 14.4443 6.41278 14.6796 6.71455 14.7369 7.13092 14.8158 7.56062 14.8571 7.99997 14.8571ZM10.609 8.58876C10.4417 8.75612 10.4417 9.02748 10.609 9.19485L11.6192 10.205C11.7866 10.3724 12.0579 10.3724 12.2253 10.205 12.3926 10.0376 12.3926 9.76628 12.2253 9.59891L11.2151 8.58876C11.0478 8.42139 10.7764 8.42139 10.609 8.58876ZM9.59888 10.205C9.43151 10.0376 9.43151 9.76628 9.59888 9.59891 9.76625 9.43154 10.0376 9.43154 10.205 9.59891L11.2151 10.6091C11.3825 10.7764 11.3825 11.0478 11.2151 11.2152 11.0478 11.3825 10.7764 11.3825 10.609 11.2152L9.59888 10.205ZM8.58873 10.6091C8.42136 10.7764 8.42136 11.0478 8.58873 11.2152L9.59888 12.2253C9.76625 12.3927 10.0376 12.3927 10.205 12.2253 10.3723 12.0579 10.3723 11.7866 10.205 11.6192L9.19482 10.6091C9.02745 10.4417 8.7561 10.4417 8.58873 10.6091Z" fill-rule="evenodd" clip-rule="evenodd"/></svg>