<svg viewBox="0 0 16 16"><path d="M1.45072 5.0542C1.37228 4.76144 1.54601 4.46052 1.83877 4.38207L12.9217 1.41242C13.2144 1.33398 13.5153 1.50771 13.5938 1.80048L14.1231 3.77606C14.2016 4.06882 14.0279 4.36974 13.7351 4.44819L5.68046 6.60642H14.0194C14.3225 6.60642 14.5682 6.85212 14.5682 7.15521V14.0576C14.5682 14.3607 14.3225 14.6064 14.0194 14.6064H2.54553C2.24244 14.6064 1.99674 14.3607 1.99674 14.0576V7.15521C1.99674 7.13356 1.99799 7.11221 2.00043 7.09122 1.99255 7.07139 1.98573 7.0509 1.98008 7.02978L1.45072 5.0542ZM2.72821 6.51009L2.35846 5.1302 4.4113 4.58014 3.7954 6.22414 2.72821 6.51009ZM4.81286 5.95151L6.96897 5.37378 7.58487 3.72979 5.42875 4.30752 4.81286 5.95151ZM8.60232 3.45716L7.98642 5.10116 10.1431 4.52328 10.759 2.87928 8.60232 3.45716ZM11.7765 2.60666L11.1606 4.25065 13.2154 3.70006 12.8457 2.32016 11.7765 2.60666ZM9.88779 10.5733C9.94677 10.6074 9.94677 10.687 9.88779 10.7211L7.14745 12.3073C7.08476 12.3436 7.00344 12.3019 7.00344 12.2334L7.00344 9.06106C7.00344 8.99259 7.08476 8.95085 7.14745 8.98714L9.88779 10.5733Z" fill-rule="evenodd" clip-rule="evenodd"/></svg>