<svg viewBox="0 0 16 16"><path d="M3.29421 10.9495C2.82464 10.9495 2.44397 10.5688 2.44397 10.0992V5.90076C2.44397 5.43118 2.82463 5.05052 3.29421 5.05052L5.74084 5.05052 8.00732 3.21178C8.56308 2.76092 9.39323 3.15643 9.39323 3.87206V12.1279C9.39323 12.8436 8.56306 13.2391 8.00732 12.7882L5.74083 10.9495H3.29421ZM12.8204 5.36032C12.6618 5.13433 12.3499 5.07978 12.1239 5.23847 11.8979 5.39716 11.8434 5.70901 12.0021 5.935 12.324 6.39344 12.5561 7.13502 12.5561 8.00661 12.5561 8.8782 12.324 9.61978 12.0021 10.0782 11.8434 10.3042 11.8979 10.6161 12.1239 10.7748 12.3499 10.9334 12.6618 10.8789 12.8204 10.6529 13.2862 9.9896 13.5561 9.0342 13.5561 8.00661 13.5561 6.97903 13.2862 6.02362 12.8204 5.36032Z" fill-rule="evenodd" clip-rule="evenodd"/></svg>