<svg viewBox="0 0 16 16"><path d="M8 15C11.866 15 15 11.866 15 8 15 4.13401 11.866 1 8 1 4.13401 1 1 4.13401 1 8 1 11.866 4.13401 15 8 15ZM11.3452 7.03033C11.6381 6.73744 11.6381 6.26256 11.3452 5.96967 11.0523 5.67678 10.5775 5.67678 10.2846 5.96967L7.13983 9.11441 5.9951 7.96967C5.7022 7.67678 5.22733 7.67678 4.93444 7.96967 4.64154 8.26256 4.64154 8.73744 4.93443 9.03033L6.6095 10.7054C6.75015 10.8461 6.94092 10.9251 7.13983 10.9251 7.33874 10.9251 7.52951 10.8461 7.67016 10.7054L11.3452 7.03033Z" fill-rule="evenodd" clip-rule="evenodd"/></svg>