<svg viewBox="0 0 16 16"><path d="M1 3.33334C1 2.96515 1.29848 2.66667 1.66667 2.66667H14.3333C14.7015 2.66667 15 2.96515 15 3.33334V12.6667C15 13.0349 14.7015 13.3333 14.3333 13.3333H1.66667C1.29848 13.3333 1 13.0349 1 12.6667V3.33334ZM3.5 5.33269C3.5 5.05655 3.72386 4.83269 4 4.83269H8C8.27614 4.83269 8.5 5.05655 8.5 5.33269 8.5 5.60883 8.27614 5.83269 8 5.83269H4C3.72386 5.83269 3.5 5.60883 3.5 5.33269ZM4 7.49968C3.72386 7.49968 3.5 7.72354 3.5 7.99968 3.5 8.27582 3.72386 8.49968 4 8.49968H6.66667C6.94281 8.49968 7.16667 8.27582 7.16667 7.99968 7.16667 7.72354 6.94281 7.49968 6.66667 7.49968H4ZM3.5 10.6667C3.5 10.3905 3.72386 10.1667 4 10.1667H5.33333C5.60948 10.1667 5.83333 10.3905 5.83333 10.6667 5.83333 10.9428 5.60948 11.1667 5.33333 11.1667H4C3.72386 11.1667 3.5 10.9428 3.5 10.6667ZM7.33337 10.1667C7.05723 10.1667 6.83337 10.3905 6.83337 10.6667 6.83337 10.9428 7.05723 11.1667 7.33337 11.1667H12C12.2762 11.1667 12.5 10.9428 12.5 10.6667 12.5 10.3905 12.2762 10.1667 12 10.1667L7.33337 10.1667ZM8.16663 7.99968C8.16663 7.72354 8.39048 7.49968 8.66663 7.49968H12C12.2761 7.49968 12.5 7.72354 12.5 7.99968 12.5 8.27582 12.2761 8.49968 12 8.49968H8.66663C8.39048 8.49968 8.16663 8.27582 8.16663 7.99968ZM10 4.83269C9.72386 4.83269 9.5 5.05655 9.5 5.33269 9.5 5.60883 9.72386 5.83269 10 5.83269H12C12.2761 5.83269 12.5 5.60883 12.5 5.33269 12.5 5.05655 12.2761 4.83269 12 4.83269H10ZM1 3.33334C1 2.96515 1.29848 2.66667 1.66667 2.66667H14.3333C14.7015 2.66667 15 2.96515 15 3.33334V12.6667C15 13.0349 14.7015 13.3333 14.3333 13.3333H1.66667C1.29848 13.3333 1 13.0349 1 12.6667V3.33334ZM3.5 5.33269C3.5 5.05655 3.72386 4.83269 4 4.83269H8C8.27614 4.83269 8.5 5.05655 8.5 5.33269 8.5 5.60883 8.27614 5.83269 8 5.83269H4C3.72386 5.83269 3.5 5.60883 3.5 5.33269ZM4 7.49968C3.72386 7.49968 3.5 7.72354 3.5 7.99968 3.5 8.27582 3.72386 8.49968 4 8.49968H6.66667C6.94281 8.49968 7.16667 8.27582 7.16667 7.99968 7.16667 7.72354 6.94281 7.49968 6.66667 7.49968H4ZM3.5 10.6667C3.5 10.3905 3.72386 10.1667 4 10.1667H5.33333C5.60948 10.1667 5.83333 10.3905 5.83333 10.6667 5.83333 10.9428 5.60948 11.1667 5.33333 11.1667H4C3.72386 11.1667 3.5 10.9428 3.5 10.6667ZM7.33337 10.1667C7.05723 10.1667 6.83337 10.3905 6.83337 10.6667 6.83337 10.9428 7.05723 11.1667 7.33337 11.1667H12C12.2762 11.1667 12.5 10.9428 12.5 10.6667 12.5 10.3905 12.2762 10.1667 12 10.1667L7.33337 10.1667ZM8.16663 7.99968C8.16663 7.72354 8.39048 7.49968 8.66663 7.49968H12C12.2761 7.49968 12.5 7.72354 12.5 7.99968 12.5 8.27582 12.2761 8.49968 12 8.49968H8.66663C8.39048 8.49968 8.16663 8.27582 8.16663 7.99968ZM10 4.83269C9.72386 4.83269 9.5 5.05655 9.5 5.33269 9.5 5.60883 9.72386 5.83269 10 5.83269H12C12.2761 5.83269 12.5 5.60883 12.5 5.33269 12.5 5.05655 12.2761 4.83269 12 4.83269H10ZM7.33337 10.1667V9.16667 10.1667ZM12.5 10.6667L11.5 10.6667V10.6667H12.5ZM12 10.1667V11.1667 10.1667ZM1.66667 1.66667C0.74619 1.66667 0 2.41287 0 3.33334H2C2 3.51743 1.85076 3.66667 1.66667 3.66667V1.66667ZM14.3333 1.66667H1.66667V3.66667H14.3333V1.66667ZM16 3.33334C16 2.41286 15.2538 1.66667 14.3333 1.66667V3.66667C14.1492 3.66667 14 3.51743 14 3.33334H16ZM16 12.6667V3.33334H14V12.6667H16ZM14.3333 14.3333C15.2538 14.3333 16 13.5871 16 12.6667H14C14 12.4826 14.1492 12.3333 14.3333 12.3333V14.3333ZM1.66667 14.3333H14.3333V12.3333H1.66667V14.3333ZM0 12.6667C0 13.5871 0.746192 14.3333 1.66667 14.3333V12.3333C1.85076 12.3333 2 12.4826 2 12.6667H0ZM0 3.33334V12.6667H2V3.33334H0ZM4 3.83269C3.17157 3.83269 2.5 4.50426 2.5 5.33269H4.5C4.5 5.60883 4.27614 5.83269 4 5.83269V3.83269ZM8 3.83269H4V5.83269H8V3.83269ZM9.5 5.33269C9.5 4.50426 8.82843 3.83269 8 3.83269V5.83269C7.72386 5.83269 7.5 5.60883 7.5 5.33269H9.5ZM8 6.83269C8.82843 6.83269 9.5 6.16111 9.5 5.33269H7.5C7.5 5.05655 7.72386 4.83269 8 4.83269V6.83269ZM4 6.83269H8V4.83269H4V6.83269ZM2.5 5.33269C2.5 6.16111 3.17157 6.83269 4 6.83269V4.83269C4.27614 4.83269 4.5 5.05655 4.5 5.33269H2.5ZM4.5 7.99968C4.5 8.27582 4.27614 8.49968 4 8.49968V6.49968C3.17157 6.49968 2.5 7.17125 2.5 7.99968H4.5ZM4 7.49968C4.27614 7.49968 4.5 7.72354 4.5 7.99968H2.5C2.5 8.82811 3.17157 9.49968 4 9.49968V7.49968ZM6.66667 7.49968H4V9.49968H6.66667V7.49968ZM6.16667 7.99968C6.16667 7.72354 6.39052 7.49968 6.66667 7.49968V9.49968C7.49509 9.49968 8.16667 8.82811 8.16667 7.99968H6.16667ZM6.66667 8.49968C6.39052 8.49968 6.16667 8.27582 6.16667 7.99968H8.16667C8.16667 7.17125 7.49509 6.49968 6.66667 6.49968V8.49968ZM4 8.49968H6.66667V6.49968H4V8.49968ZM4 9.16667C3.17157 9.16667 2.5 9.83824 2.5 10.6667H4.5C4.5 10.9428 4.27614 11.1667 4 11.1667V9.16667ZM5.33333 9.16667H4V11.1667H5.33333V9.16667ZM6.83333 10.6667C6.83333 9.83824 6.16176 9.16667 5.33333 9.16667V11.1667C5.05719 11.1667 4.83333 10.9428 4.83333 10.6667H6.83333ZM5.33333 12.1667C6.16176 12.1667 6.83333 11.4951 6.83333 10.6667H4.83333C4.83333 10.3905 5.05719 10.1667 5.33333 10.1667V12.1667ZM4 12.1667H5.33333V10.1667H4V12.1667ZM2.5 10.6667C2.5 11.4951 3.17157 12.1667 4 12.1667V10.1667C4.27614 10.1667 4.5 10.3905 4.5 10.6667H2.5ZM7.83337 10.6667C7.83337 10.9428 7.60952 11.1667 7.33337 11.1667V9.16667C6.50495 9.16667 5.83337 9.83824 5.83337 10.6667H7.83337ZM7.33337 10.1667C7.60952 10.1667 7.83337 10.3905 7.83337 10.6667H5.83337C5.83337 11.4951 6.50495 12.1667 7.33337 12.1667V10.1667ZM12 10.1667H7.33337V12.1667H12V10.1667ZM11.5 10.6667C11.5 10.3905 11.7239 10.1667 12 10.1667V12.1667C12.8285 12.1667 13.5 11.4951 13.5 10.6667H11.5ZM12 11.1667C11.7239 11.1667 11.5 10.9428 11.5 10.6667L13.5 10.6667C13.5 9.83824 12.8285 9.16667 12 9.16667V11.1667ZM7.33337 11.1667H12V9.16667L7.33337 9.16667V11.1667ZM8.66663 6.49968C7.8382 6.49968 7.16663 7.17125 7.16663 7.99968H9.16663C9.16663 8.27582 8.94277 8.49968 8.66663 8.49968V6.49968ZM12 6.49968H8.66663V8.49968H12V6.49968ZM13.5 7.99968C13.5 7.17125 12.8284 6.49968 12 6.49968V8.49968C11.7238 8.49968 11.5 8.27582 11.5 7.99968H13.5ZM12 9.49968C12.8284 9.49968 13.5 8.82811 13.5 7.99968H11.5C11.5 7.72354 11.7238 7.49968 12 7.49968V9.49968ZM8.66663 9.49968H12V7.49968H8.66663V9.49968ZM7.16663 7.99968C7.16663 8.82811 7.8382 9.49968 8.66663 9.49968V7.49968C8.94277 7.49968 9.16663 7.72354 9.16663 7.99968H7.16663ZM10.5 5.33269C10.5 5.60883 10.2761 5.83269 10 5.83269V3.83269C9.17157 3.83269 8.5 4.50426 8.5 5.33269H10.5ZM10 4.83269C10.2761 4.83269 10.5 5.05654 10.5 5.33269H8.5C8.5 6.16111 9.17157 6.83269 10 6.83269V4.83269ZM12 4.83269H10V6.83269H12V4.83269ZM11.5 5.33269C11.5 5.05654 11.7239 4.83269 12 4.83269V6.83269C12.8284 6.83269 13.5 6.16111 13.5 5.33269H11.5ZM12 5.83269C11.7239 5.83269 11.5 5.60883 11.5 5.33269H13.5C13.5 4.50426 12.8284 3.83269 12 3.83269V5.83269ZM10 5.83269H12V3.83269H10V5.83269Z" fill-rule="" clip-rule=""/></svg>