<svg viewBox="0 0 24 24"><path d="M9.69257 9.08928L9.88669 10.5637H20.5847C20.6439 10.5637 20.6919 10.6117 20.6919 10.6709V20.9566C20.6919 21.0158 20.6439 21.0637 20.5847 21.0637H4.299C4.23982 21.0637 4.19185 21.0158 4.19185 20.9566V10.6714 10.6709L4.19185 10.6695 4.192 10.567 4.191 10.5634 4.91455 10.3696 7.71557 9.61902 8.09051 9.51856 9.49026 9.14349 9.69257 9.08928ZM14.9143 16.8122C15.4927 16.4775 15.4927 15.65 14.9143 15.3152L11.2299 13.1826C10.7314 12.8941 9.9106 13.165 9.9106 13.9311L9.9106 18.1963C9.9106 18.9624 10.7314 19.2334 11.2299 18.9448L14.9143 16.8122Z" fill-rule="" clip-rule=""/></svg>