<svg viewBox="0 0 24 24"><path d="M2.58752 7.48053C2.465 7.02328 2.73636 6.55327 3.19362 6.43075L18.9244 2.2157C19.3817 2.09318 19.8517 2.36453 19.9742 2.82179L20.8246 5.99555C20.9471 6.4528 20.6758 6.92281 20.2185 7.04533L9.88669 9.81373H20.5847C21.0581 9.81373 21.4419 10.1975 21.4419 10.6709V20.9566C21.4419 21.43 21.0581 21.8137 20.5847 21.8137H4.299C3.82561 21.8137 3.44185 21.43 3.44185 20.9566V10.6709L3.44185 10.6685C3.44051 10.6638 3.4392 10.659 3.43793 10.6543L2.58752 7.48053ZM4.72044 9.64511L4.2028 7.71326 18.6917 3.83097 19.2093 5.76282 4.72044 9.64511ZM4.94185 20.3137V11.3137H19.9419V20.3137H4.94185ZM14.5386 16.1631C14.6179 16.1172 14.6179 16.0102 14.5386 15.9643L10.8542 13.8317C10.7699 13.7829 10.6606 13.8391 10.6606 13.9311L10.6606 18.1963C10.6606 18.2884 10.7699 18.3445 10.8542 18.2957L14.5386 16.1631Z" fill-rule="" clip-rule=""/></svg>