<svg viewBox="0 0 16 16"><path d="M6.48401 6.14053L6.6133 7.12259H13.7447C13.7841 7.12259 13.816 7.15454 13.816 7.19395V14.0522C13.816 14.0916 13.7841 14.1235 13.7447 14.1235H2.88648C2.84707 14.1235 2.81512 14.0916 2.81512 14.0522V7.19516 7.19395L2.81514 7.19076 2.81546 7.12352 3.29789 6.99425 5.27305 6.46501 5.40561 6.42949 5.52273 6.39811 6.33811 6.17963 6.48401 6.14053ZM7.69491 12.5434L7.44466 12.111 7.69491 12.5434 10.1512 11.1216C10.5364 10.8987 10.5364 10.3475 10.1512 10.1245L7.69491 8.70272C7.3628 8.51048 6.81604 8.691 6.81604 9.20131V12.0448C6.81604 12.5551 7.3628 12.7356 7.69491 12.5434Z" fill-rule="" clip-rule=""/></svg>