<svg viewBox="0 0 16 16"><path d="M11.8846 13.9381L12.9887 4.40015C13.0231 4.10321 12.791 3.84265 12.492 3.84265H3.508C3.20924 3.84265 2.97716 4.10292 3.01127 4.39973L4.1071 13.9371C4.1767 14.5429 4.68951 15.0001 5.29925 15.0001H10.6926C11.3019 15.0001 11.8145 14.5434 11.8846 13.9381ZM3.86962 1.99988C3.86962 1.72374 4.09348 1.49988 4.36962 1.49988H6.68492C6.75885 1.21234 7.0196 0.999878 7.32992 0.999878H8.66462C8.97494 0.999878 9.23569 1.21234 9.30962 1.49988H11.6274C11.9036 1.49988 12.1274 1.72374 12.1274 1.99988 12.1274 2.27602 11.9036 2.49988 11.6274 2.49988H4.36962C4.09348 2.49988 3.86962 2.27602 3.86962 1.99988Z" fill-rule="" clip-rule=""/></svg>